<svg width="300" height="300" viewBox="0 0 300 300" fill="none" xmlns="http://www.w3.org/2000/svg">
<path fill-rule="evenodd" clip-rule="evenodd" d="M67.1342 102.157L20.0962 75C-6.69873 121.41 -6.69873 178.59 20.0962 225L67.1342 197.843C58.9913 183.769 54.3307 167.429 54.3307 150C54.3307 132.571 58.9913 116.231 67.1342 102.157Z" fill="#61A0DB"/>
<path fill-rule="evenodd" clip-rule="evenodd" d="M67.1344 197.842L20.0962 224.999C46.8911 271.409 96.4102 299.999 150 299.999V245.668C114.592 245.668 83.6772 226.433 67.1344 197.842Z" fill="#81C6F8"/>
<path fill-rule="evenodd" clip-rule="evenodd" d="M232.894 197.795C216.358 226.413 185.428 245.669 150 245.669V300C203.662 300 253.247 271.411 280.078 225L232.894 197.795Z" fill="#81C6F8"/>
<path fill-rule="evenodd" clip-rule="evenodd" d="M232.866 197.843C241.009 183.769 245.669 167.429 245.669 150C245.669 132.571 241.009 116.231 232.866 102.157L279.904 75C306.699 121.41 306.699 178.59 279.904 225L232.866 197.843Z" fill="#A4E1FB"/>
<path fill-rule="evenodd" clip-rule="evenodd" d="M150 54.3307C185.408 54.3307 216.323 73.5662 232.866 102.157L279.904 75C253.109 28.5898 203.59 0 150 0V54.3307Z" fill="#4980B3"/>
<path fill-rule="evenodd" clip-rule="evenodd" d="M150 54.3307C114.592 54.3307 83.6771 73.5662 67.1343 102.157L20.0962 75C46.8911 28.5898 96.4102 0 150 0V54.3307Z" fill="#4980B3"/>
</svg>
