<svg width="370" height="260" viewBox="0 0 370 260" fill="none" xmlns="http://www.w3.org/2000/svg">
<path d="M7.02273 6C6.92898 5.71307 6.8054 5.45597 6.65199 5.22869C6.50142 4.99858 6.32102 4.80256 6.1108 4.64062C5.90341 4.47869 5.66761 4.35511 5.40341 4.26989C5.1392 4.18466 4.84943 4.14205 4.53409 4.14205C4.01705 4.14205 3.54688 4.27557 3.12358 4.54261C2.70028 4.80966 2.36364 5.20312 2.11364 5.72301C1.86364 6.2429 1.73864 6.88068 1.73864 7.63636C1.73864 8.39205 1.86506 9.02983 2.1179 9.54972C2.37074 10.0696 2.71307 10.4631 3.14489 10.7301C3.5767 10.9972 4.0625 11.1307 4.60227 11.1307C5.10227 11.1307 5.54261 11.0241 5.9233 10.8111C6.30682 10.5952 6.60511 10.2912 6.81818 9.89915C7.03409 9.50426 7.14205 9.03977 7.14205 8.50568L7.46591 8.57386H4.84091V7.63636H8.16477V8.57386C8.16477 9.29261 8.01136 9.91761 7.70455 10.4489C7.40057 10.9801 6.98011 11.392 6.44318 11.6847C5.90909 11.9744 5.29545 12.1193 4.60227 12.1193C3.82955 12.1193 3.15057 11.9375 2.56534 11.5739C1.98295 11.2102 1.52841 10.6932 1.2017 10.0227C0.877841 9.35227 0.715909 8.55682 0.715909 7.63636C0.715909 6.94602 0.808239 6.32528 0.992898 5.77415C1.1804 5.22017 1.4446 4.74858 1.78551 4.35938C2.12642 3.97017 2.52983 3.67188 2.99574 3.46449C3.46165 3.2571 3.97443 3.15341 4.53409 3.15341C4.99432 3.15341 5.4233 3.22301 5.82102 3.36222C6.22159 3.49858 6.57812 3.69318 6.89062 3.94602C7.20597 4.19602 7.46875 4.49574 7.67898 4.84517C7.8892 5.19176 8.03409 5.5767 8.11364 6H7.02273ZM9.97479 12V3.27273H12.9237C13.6055 3.27273 14.1651 3.3892 14.6026 3.62216C15.0401 3.85227 15.364 4.16903 15.5742 4.57244C15.7844 4.97585 15.8896 5.43466 15.8896 5.94886C15.8896 6.46307 15.7844 6.91903 15.5742 7.31676C15.364 7.71449 15.0415 8.02699 14.6069 8.25426C14.1722 8.47869 13.6168 8.59091 12.9407 8.59091H10.5543V7.63636H12.9066C13.3725 7.63636 13.7475 7.56818 14.0316 7.43182C14.3185 7.29545 14.5259 7.10227 14.6538 6.85227C14.7844 6.59943 14.8498 6.2983 14.8498 5.94886C14.8498 5.59943 14.7844 5.29403 14.6538 5.03267C14.5231 4.77131 14.3143 4.5696 14.0273 4.42756C13.7404 4.28267 13.3612 4.21023 12.8896 4.21023H11.0316V12H9.97479ZM14.0827 8.07955L16.2305 12H15.0032L12.8896 8.07955H14.0827ZM18.0085 12H16.9006L20.1051 3.27273H21.196L24.4006 12H23.2926L20.6847 4.65341H20.6165L18.0085 12ZM18.4176 8.59091H22.8835V9.52841H18.4176V8.59091ZM28.4531 12H25.7599V3.27273H28.5724C29.419 3.27273 30.1435 3.44744 30.7457 3.79688C31.348 4.14347 31.8097 4.64205 32.1307 5.29261C32.4517 5.94034 32.6122 6.71591 32.6122 7.61932C32.6122 8.52841 32.4503 9.31108 32.1264 9.96733C31.8026 10.6207 31.331 11.1236 30.7116 11.4759C30.0923 11.8253 29.3395 12 28.4531 12ZM26.8168 11.0625H28.3849C29.1065 11.0625 29.7045 10.9233 30.179 10.6449C30.6534 10.3665 31.0071 9.97017 31.2401 9.45597C31.473 8.94176 31.5895 8.32955 31.5895 7.61932C31.5895 6.91477 31.4744 6.30824 31.2443 5.79972C31.0142 5.28835 30.6705 4.89631 30.2131 4.62358C29.7557 4.34801 29.1861 4.21023 28.5043 4.21023H26.8168V11.0625ZM34.3849 12V3.27273H39.652V4.21023H35.4418V7.15909H39.3793V8.09659H35.4418V11.0625H39.7202V12H34.3849ZM46.3295 5.45455C46.2784 5.02273 46.071 4.6875 45.7074 4.44886C45.3438 4.21023 44.8977 4.09091 44.3693 4.09091C43.983 4.09091 43.6449 4.15341 43.3551 4.27841C43.0682 4.40341 42.8438 4.57528 42.6818 4.79403C42.5227 5.01278 42.4432 5.26136 42.4432 5.53977C42.4432 5.77273 42.4986 5.97301 42.6094 6.14062C42.723 6.3054 42.8679 6.44318 43.044 6.55398C43.2202 6.66193 43.4048 6.75142 43.598 6.82244C43.7912 6.89062 43.9688 6.94602 44.1307 6.98864L45.017 7.22727C45.2443 7.28693 45.4972 7.36932 45.7756 7.47443C46.0568 7.57955 46.3253 7.72301 46.581 7.90483C46.8395 8.08381 47.0526 8.31392 47.2202 8.59517C47.3878 8.87642 47.4716 9.22159 47.4716 9.63068C47.4716 10.1023 47.348 10.5284 47.1009 10.9091C46.8565 11.2898 46.4986 11.5923 46.027 11.8168C45.5582 12.0412 44.9886 12.1534 44.3182 12.1534C43.6932 12.1534 43.152 12.0526 42.6946 11.8509C42.2401 11.6491 41.8821 11.3679 41.6207 11.0071C41.3622 10.6463 41.2159 10.2273 41.1818 9.75H42.2727C42.3011 10.0795 42.4119 10.3523 42.6051 10.5682C42.8011 10.7812 43.0483 10.9403 43.3466 11.0455C43.6477 11.1477 43.9716 11.1989 44.3182 11.1989C44.7216 11.1989 45.0838 11.1335 45.4048 11.0028C45.7259 10.8693 45.9801 10.6847 46.1676 10.4489C46.3551 10.2102 46.4489 9.93182 46.4489 9.61364C46.4489 9.32386 46.3679 9.08807 46.206 8.90625C46.044 8.72443 45.831 8.5767 45.5668 8.46307C45.3026 8.34943 45.017 8.25 44.7102 8.16477L43.6364 7.85795C42.9545 7.66193 42.4148 7.3821 42.017 7.01847C41.6193 6.65483 41.4205 6.17898 41.4205 5.59091C41.4205 5.10227 41.5526 4.67614 41.8168 4.3125C42.0838 3.94602 42.4418 3.66193 42.8906 3.46023C43.3423 3.25568 43.8466 3.15341 44.4034 3.15341C44.9659 3.15341 45.4659 3.25426 45.9034 3.45597C46.3409 3.65483 46.6875 3.92756 46.9432 4.27415C47.2017 4.62074 47.3381 5.0142 47.3523 5.45455H46.3295ZM55.8228 12V5.45455H56.8285V12H55.8228ZM56.3342 4.36364C56.1381 4.36364 55.9691 4.29688 55.8271 4.16335C55.6879 4.02983 55.6183 3.86932 55.6183 3.68182C55.6183 3.49432 55.6879 3.33381 55.8271 3.20028C55.9691 3.06676 56.1381 3 56.3342 3C56.5302 3 56.6978 3.06676 56.837 3.20028C56.979 3.33381 57.0501 3.49432 57.0501 3.68182C57.0501 3.86932 56.979 4.02983 56.837 4.16335C56.6978 4.29688 56.5302 4.36364 56.3342 4.36364ZM59.6761 8.0625V12H58.6705V5.45455H59.642V6.47727H59.7273C59.8807 6.14489 60.1136 5.87784 60.4261 5.67614C60.7386 5.47159 61.142 5.36932 61.6364 5.36932C62.0795 5.36932 62.4673 5.46023 62.7997 5.64205C63.1321 5.82102 63.3906 6.09375 63.5753 6.46023C63.7599 6.82386 63.8523 7.28409 63.8523 7.84091V12H62.8466V7.90909C62.8466 7.39489 62.7131 6.99432 62.446 6.70739C62.179 6.41761 61.8125 6.27273 61.3466 6.27273C61.0256 6.27273 60.7386 6.34233 60.4858 6.48153C60.2358 6.62074 60.0384 6.82386 59.8935 7.09091C59.7486 7.35795 59.6761 7.68182 59.6761 8.0625ZM73.4968 10.3636V9.90341C73.4968 9.58523 73.5621 9.29403 73.6928 9.02983C73.8263 8.76278 74.0195 8.54972 74.2724 8.39062C74.5281 8.22869 74.8377 8.14773 75.2013 8.14773C75.5707 8.14773 75.8803 8.22869 76.1303 8.39062C76.3803 8.54972 76.5692 8.76278 76.6971 9.02983C76.8249 9.29403 76.8888 9.58523 76.8888 9.90341V10.3636C76.8888 10.6818 76.8235 10.9744 76.6928 11.2415C76.565 11.5057 76.3746 11.7187 76.1218 11.8807C75.8718 12.0398 75.565 12.1193 75.2013 12.1193C74.832 12.1193 74.521 12.0398 74.2681 11.8807C74.0153 11.7187 73.8235 11.5057 73.6928 11.2415C73.5621 10.9744 73.4968 10.6818 73.4968 10.3636ZM74.3661 9.90341V10.3636C74.3661 10.6278 74.4286 10.8651 74.5536 11.0753C74.6786 11.2827 74.8945 11.3864 75.2013 11.3864C75.4996 11.3864 75.7099 11.2827 75.832 11.0753C75.957 10.8651 76.0195 10.6278 76.0195 10.3636V9.90341C76.0195 9.6392 75.9599 9.40341 75.8406 9.19602C75.7212 8.9858 75.5082 8.88068 75.2013 8.88068C74.9031 8.88068 74.6886 8.9858 74.5579 9.19602C74.43 9.40341 74.3661 9.6392 74.3661 9.90341ZM69.1502 5.36932V4.90909C69.1502 4.59091 69.2156 4.29972 69.3462 4.03551C69.4798 3.76847 69.6729 3.5554 69.9258 3.39631C70.1815 3.23437 70.4911 3.15341 70.8548 3.15341C71.2241 3.15341 71.5337 3.23437 71.7837 3.39631C72.0337 3.5554 72.2227 3.76847 72.3505 4.03551C72.4783 4.29972 72.5423 4.59091 72.5423 4.90909V5.36932C72.5423 5.6875 72.4769 5.98011 72.3462 6.24716C72.2184 6.51136 72.0281 6.72443 71.7752 6.88636C71.5252 7.04545 71.2184 7.125 70.8548 7.125C70.4854 7.125 70.1744 7.04545 69.9215 6.88636C69.6687 6.72443 69.4769 6.51136 69.3462 6.24716C69.2156 5.98011 69.1502 5.6875 69.1502 5.36932ZM70.0195 4.90909V5.36932C70.0195 5.63352 70.082 5.87074 70.207 6.08097C70.332 6.28835 70.5479 6.39205 70.8548 6.39205C71.1531 6.39205 71.3633 6.28835 71.4854 6.08097C71.6104 5.87074 71.6729 5.63352 71.6729 5.36932V4.90909C71.6729 4.64489 71.6133 4.40909 71.494 4.2017C71.3746 3.99148 71.1616 3.88636 70.8548 3.88636C70.5565 3.88636 70.342 3.99148 70.2113 4.2017C70.0835 4.40909 70.0195 4.64489 70.0195 4.90909ZM69.4741 12L75.4741 3.27273H76.4457L70.4457 12H69.4741Z" fill="black"/>
<path d="M70.7101 250.613V259.34H69.6532V251.721H69.6021L67.4714 253.136V252.062L69.6532 250.613H70.7101ZM130.595 259.34V258.573L133.476 255.42C133.814 255.051 134.092 254.73 134.311 254.457C134.53 254.181 134.692 253.923 134.797 253.681C134.905 253.437 134.959 253.181 134.959 252.914C134.959 252.608 134.885 252.342 134.737 252.117C134.592 251.893 134.393 251.72 134.14 251.598C133.888 251.475 133.604 251.414 133.288 251.414C132.953 251.414 132.66 251.484 132.41 251.623C132.163 251.76 131.971 251.951 131.835 252.198C131.702 252.446 131.635 252.735 131.635 253.068H130.629C130.629 252.556 130.747 252.108 130.983 251.721C131.219 251.335 131.54 251.034 131.946 250.818C132.355 250.602 132.814 250.494 133.322 250.494C133.834 250.494 134.287 250.602 134.682 250.818C135.077 251.034 135.386 251.325 135.611 251.691C135.835 252.058 135.947 252.465 135.947 252.914C135.947 253.235 135.889 253.549 135.773 253.856C135.659 254.16 135.46 254.5 135.176 254.875C134.895 255.247 134.504 255.701 134.004 256.238L132.044 258.335V258.403H136.101V259.34H130.595ZM215.059 259.46C214.497 259.46 213.996 259.363 213.555 259.17C213.118 258.977 212.77 258.708 212.511 258.365C212.256 258.018 212.116 257.616 212.094 257.159H213.167C213.19 257.44 213.287 257.683 213.457 257.887C213.628 258.089 213.851 258.245 214.126 258.356C214.402 258.467 214.707 258.522 215.042 258.522C215.417 258.522 215.75 258.457 216.04 258.326C216.329 258.196 216.557 258.014 216.721 257.781C216.886 257.548 216.969 257.278 216.969 256.971C216.969 256.65 216.889 256.367 216.73 256.123C216.571 255.876 216.338 255.683 216.031 255.544C215.724 255.404 215.349 255.335 214.906 255.335H214.207V254.397H214.906C215.253 254.397 215.557 254.335 215.818 254.21C216.082 254.085 216.288 253.909 216.436 253.681C216.586 253.454 216.662 253.187 216.662 252.88C216.662 252.585 216.596 252.328 216.466 252.109C216.335 251.89 216.15 251.72 215.912 251.598C215.676 251.475 215.398 251.414 215.077 251.414C214.775 251.414 214.491 251.47 214.224 251.581C213.96 251.688 213.744 251.846 213.577 252.054C213.409 252.258 213.318 252.505 213.304 252.795H212.281C212.298 252.338 212.436 251.937 212.694 251.593C212.953 251.247 213.291 250.977 213.709 250.784C214.129 250.59 214.591 250.494 215.094 250.494C215.633 250.494 216.096 250.603 216.483 250.822C216.869 251.038 217.166 251.323 217.373 251.679C217.581 252.034 217.684 252.417 217.684 252.829C217.684 253.321 217.555 253.74 217.297 254.086C217.041 254.433 216.693 254.673 216.253 254.806V254.875C216.804 254.965 217.234 255.2 217.544 255.578C217.854 255.953 218.008 256.417 218.008 256.971C218.008 257.446 217.879 257.872 217.621 258.25C217.365 258.625 217.015 258.92 216.572 259.136C216.129 259.352 215.625 259.46 215.059 259.46ZM290.422 257.551V256.681L294.257 250.613H294.888V251.96H294.461L291.564 256.545V256.613H296.729V257.551H290.422ZM294.53 259.34V257.287V256.882V250.613H295.535V259.34H294.53Z" fill="black"/>
<line x1="49.0153" y1="244.251" x2="295.169" y2="244.251" stroke="black"/>
<line x1="49.5153" y1="29.7962" x2="49.5153" y2="243.024" stroke="black"/>
<path d="M19.3714 50.4524V59.1797H18.3146V51.5604H18.2635L16.1328 52.9751V51.9013L18.3146 50.4524H19.3714ZM24.728 59.299C24.0859 59.299 23.539 59.1243 23.0873 58.7749C22.6356 58.4226 22.2905 57.9126 22.0518 57.245C21.8132 56.5746 21.6939 55.7649 21.6939 54.8161C21.6939 53.8729 21.8132 53.0675 22.0518 52.3999C22.2933 51.7294 22.6399 51.218 23.0916 50.8658C23.5461 50.5107 24.0916 50.3331 24.728 50.3331C25.3643 50.3331 25.9084 50.5107 26.3601 50.8658C26.8146 51.218 27.1612 51.7294 27.3998 52.3999C27.6413 53.0675 27.7621 53.8729 27.7621 54.8161C27.7621 55.7649 27.6427 56.5746 27.4041 57.245C27.1655 57.9126 26.8203 58.4226 26.3686 58.7749C25.9169 59.1243 25.37 59.299 24.728 59.299ZM24.728 58.3615C25.3643 58.3615 25.8586 58.0547 26.2109 57.4411C26.5632 56.8274 26.7393 55.9524 26.7393 54.8161C26.7393 54.0604 26.6584 53.4169 26.4964 52.8857C26.3373 52.3544 26.1072 51.9496 25.8061 51.6712C25.5078 51.3928 25.1484 51.2536 24.728 51.2536C24.0973 51.2536 23.6044 51.5646 23.2493 52.1868C22.8942 52.8061 22.7166 53.6825 22.7166 54.8161C22.7166 55.5717 22.7961 56.2138 22.9552 56.7422C23.1143 57.2706 23.343 57.6726 23.6413 57.9482C23.9425 58.2237 24.3047 58.3615 24.728 58.3615ZM32.228 59.299C31.5859 59.299 31.039 59.1243 30.5873 58.7749C30.1356 58.4226 29.7905 57.9126 29.5518 57.245C29.3132 56.5746 29.1939 55.7649 29.1939 54.8161C29.1939 53.8729 29.3132 53.0675 29.5518 52.3999C29.7933 51.7294 30.1399 51.218 30.5916 50.8658C31.0461 50.5107 31.5916 50.3331 32.228 50.3331C32.8643 50.3331 33.4084 50.5107 33.8601 50.8658C34.3146 51.218 34.6612 51.7294 34.8998 52.3999C35.1413 53.0675 35.2621 53.8729 35.2621 54.8161C35.2621 55.7649 35.1427 56.5746 34.9041 57.245C34.6655 57.9126 34.3203 58.4226 33.8686 58.7749C33.4169 59.1243 32.87 59.299 32.228 59.299ZM32.228 58.3615C32.8643 58.3615 33.3586 58.0547 33.7109 57.4411C34.0632 56.8274 34.2393 55.9524 34.2393 54.8161C34.2393 54.0604 34.1584 53.4169 33.9964 52.8857C33.8373 52.3544 33.6072 51.9496 33.3061 51.6712C33.0078 51.3928 32.6484 51.2536 32.228 51.2536C31.5973 51.2536 31.1044 51.5646 30.7493 52.1868C30.3942 52.8061 30.2166 53.6825 30.2166 54.8161C30.2166 55.5717 30.2961 56.2138 30.4552 56.7422C30.6143 57.2706 30.843 57.6726 31.1413 57.9482C31.4425 58.2237 31.8047 58.3615 32.228 58.3615ZM20.7521 72.5433V72.0831C20.7521 71.7649 20.8175 71.4737 20.9481 71.2095C21.0817 70.9425 21.2748 70.7294 21.5277 70.5703C21.7834 70.4084 22.093 70.3274 22.4567 70.3274C22.826 70.3274 23.1356 70.4084 23.3856 70.5703C23.6356 70.7294 23.8246 70.9425 23.9524 71.2095C24.0802 71.4737 24.1442 71.7649 24.1442 72.0831V72.5433C24.1442 72.8615 24.0788 73.1541 23.9481 73.4212C23.8203 73.6854 23.63 73.8984 23.3771 74.0604C23.1271 74.2195 22.8203 74.299 22.4567 74.299C22.0873 74.299 21.7763 74.2195 21.5234 74.0604C21.2706 73.8984 21.0788 73.6854 20.9481 73.4212C20.8175 73.1541 20.7521 72.8615 20.7521 72.5433ZM21.6214 72.0831V72.5433C21.6214 72.8075 21.6839 73.0447 21.8089 73.255C21.9339 73.4624 22.1498 73.5661 22.4567 73.5661C22.755 73.5661 22.9652 73.4624 23.0873 73.255C23.2123 73.0447 23.2748 72.8075 23.2748 72.5433V72.0831C23.2748 71.8189 23.2152 71.5831 23.0959 71.3757C22.9765 71.1655 22.7635 71.0604 22.4567 71.0604C22.1584 71.0604 21.9439 71.1655 21.8132 71.3757C21.6854 71.5831 21.6214 71.8189 21.6214 72.0831ZM16.4055 67.549V67.0888C16.4055 66.7706 16.4709 66.4794 16.6015 66.2152C16.7351 65.9482 16.9283 65.7351 17.1811 65.576C17.4368 65.4141 17.7464 65.3331 18.1101 65.3331C18.4794 65.3331 18.789 65.4141 19.039 65.576C19.289 65.7351 19.478 65.9482 19.6058 66.2152C19.7336 66.4794 19.7976 66.7706 19.7976 67.0888V67.549C19.7976 67.8672 19.7322 68.1598 19.6015 68.4268C19.4737 68.6911 19.2834 68.9041 19.0305 69.0661C18.7805 69.2251 18.4737 69.3047 18.1101 69.3047C17.7408 69.3047 17.4297 69.2251 17.1768 69.0661C16.924 68.9041 16.7322 68.6911 16.6015 68.4268C16.4709 68.1598 16.4055 67.8672 16.4055 67.549ZM17.2748 67.0888V67.549C17.2748 67.8132 17.3373 68.0504 17.4623 68.2607C17.5873 68.468 17.8033 68.5717 18.1101 68.5717C18.4084 68.5717 18.6186 68.468 18.7408 68.2607C18.8658 68.0504 18.9283 67.8132 18.9283 67.549V67.0888C18.9283 66.8246 18.8686 66.5888 18.7493 66.3814C18.63 66.1712 18.4169 66.0661 18.1101 66.0661C17.8118 66.0661 17.5973 66.1712 17.4666 66.3814C17.3388 66.5888 17.2748 66.8246 17.2748 67.0888ZM16.7294 74.1797L22.7294 65.4524H23.701L17.701 74.1797H16.7294Z" fill="black"/>
<path d="M19.0987 108.417C18.5135 108.417 17.9964 108.313 17.5476 108.106C17.1015 107.896 16.7535 107.607 16.5035 107.241C16.2535 106.871 16.13 106.451 16.1328 105.979C16.13 105.61 16.2024 105.269 16.3501 104.957C16.4979 104.641 16.6996 104.379 16.9552 104.168C17.2138 103.955 17.5021 103.82 17.8203 103.764V103.712C17.4027 103.604 17.0703 103.37 16.8231 103.009C16.576 102.646 16.4538 102.232 16.4567 101.769C16.4538 101.326 16.566 100.93 16.7933 100.58C17.0206 100.231 17.3331 99.9553 17.7308 99.7536C18.1314 99.5519 18.5873 99.451 19.0987 99.451C19.6044 99.451 20.0561 99.5519 20.4538 99.7536C20.8515 99.9553 21.164 100.231 21.3913 100.58C21.6214 100.93 21.7379 101.326 21.7408 101.769C21.7379 102.232 21.6115 102.646 21.3615 103.009C21.1143 103.37 20.7862 103.604 20.3771 103.712V103.764C20.6925 103.82 20.9765 103.955 21.2294 104.168C21.4822 104.379 21.6839 104.641 21.8345 104.957C21.9851 105.269 22.0618 105.61 22.0646 105.979C22.0618 106.451 21.9339 106.871 21.6811 107.241C21.4311 107.607 21.0831 107.896 20.6371 108.106C20.1939 108.313 19.6811 108.417 19.0987 108.417ZM19.0987 107.479C19.4936 107.479 19.8345 107.416 20.1214 107.288C20.4084 107.16 20.63 106.979 20.7862 106.746C20.9425 106.514 21.022 106.241 21.0248 105.928C21.022 105.599 20.9368 105.308 20.7692 105.055C20.6015 104.802 20.3729 104.603 20.0831 104.458C19.7961 104.313 19.468 104.241 19.0987 104.241C18.7265 104.241 18.3942 104.313 18.1015 104.458C17.8118 104.603 17.5831 104.802 17.4155 105.055C17.2507 105.308 17.1697 105.599 17.1726 105.928C17.1697 106.241 17.245 106.514 17.3984 106.746C17.5547 106.979 17.7777 107.16 18.0675 107.288C18.3572 107.416 18.701 107.479 19.0987 107.479ZM19.0987 103.337C19.4112 103.337 19.6882 103.275 19.9297 103.15C20.174 103.025 20.3658 102.85 20.505 102.626C20.6442 102.401 20.7152 102.139 20.718 101.837C20.7152 101.542 20.6456 101.285 20.5092 101.066C20.3729 100.844 20.1839 100.674 19.9425 100.555C19.701 100.433 19.4197 100.371 19.0987 100.371C18.772 100.371 18.4865 100.433 18.2422 100.555C17.9979 100.674 17.8089 100.844 17.6754 101.066C17.5419 101.285 17.4765 101.542 17.4794 101.837C17.4765 102.139 17.5433 102.401 17.6797 102.626C17.8189 102.85 18.0106 103.025 18.255 103.15C18.4993 103.275 18.7805 103.337 19.0987 103.337ZM26.5444 108.417C25.9023 108.417 25.3555 108.242 24.9037 107.893C24.452 107.541 24.1069 107.031 23.8682 106.363C23.6296 105.692 23.5103 104.883 23.5103 103.934C23.5103 102.991 23.6296 102.185 23.8682 101.518C24.1097 100.847 24.4563 100.336 24.908 99.9837C25.3626 99.6286 25.908 99.451 26.5444 99.451C27.1807 99.451 27.7248 99.6286 28.1765 99.9837C28.631 100.336 28.9776 100.847 29.2162 101.518C29.4577 102.185 29.5785 102.991 29.5785 103.934C29.5785 104.883 29.4591 105.692 29.2205 106.363C28.9819 107.031 28.6367 107.541 28.185 107.893C27.7333 108.242 27.1864 108.417 26.5444 108.417ZM26.5444 107.479C27.1807 107.479 27.6751 107.173 28.0273 106.559C28.3796 105.945 28.5557 105.07 28.5557 103.934C28.5557 103.178 28.4748 102.535 28.3128 102.004C28.1537 101.472 27.9236 101.067 27.6225 100.789C27.3242 100.511 26.9648 100.371 26.5444 100.371C25.9137 100.371 25.4208 100.683 25.0657 101.305C24.7106 101.924 24.533 102.8 24.533 103.934C24.533 104.69 24.6126 105.332 24.7716 105.86C24.9307 106.389 25.1594 106.791 25.4577 107.066C25.7589 107.342 26.1211 107.479 26.5444 107.479ZM20.7521 121.661V121.201C20.7521 120.883 20.8175 120.592 20.9481 120.327C21.0817 120.06 21.2748 119.847 21.5277 119.688C21.7834 119.526 22.093 119.445 22.4567 119.445C22.826 119.445 23.1356 119.526 23.3856 119.688C23.6356 119.847 23.8246 120.06 23.9524 120.327C24.0802 120.592 24.1442 120.883 24.1442 121.201V121.661C24.1442 121.979 24.0788 122.272 23.9481 122.539C23.8203 122.803 23.63 123.016 23.3771 123.178C23.1271 123.337 22.8203 123.417 22.4567 123.417C22.0873 123.417 21.7763 123.337 21.5234 123.178C21.2706 123.016 21.0788 122.803 20.9481 122.539C20.8175 122.272 20.7521 121.979 20.7521 121.661ZM21.6214 121.201V121.661C21.6214 121.925 21.6839 122.163 21.8089 122.373C21.9339 122.58 22.1498 122.684 22.4567 122.684C22.755 122.684 22.9652 122.58 23.0873 122.373C23.2123 122.163 23.2748 121.925 23.2748 121.661V121.201C23.2748 120.937 23.2152 120.701 23.0959 120.494C22.9765 120.283 22.7635 120.178 22.4567 120.178C22.1584 120.178 21.9439 120.283 21.8132 120.494C21.6854 120.701 21.6214 120.937 21.6214 121.201ZM16.4055 116.667V116.207C16.4055 115.889 16.4709 115.597 16.6015 115.333C16.7351 115.066 16.9283 114.853 17.1811 114.694C17.4368 114.532 17.7464 114.451 18.1101 114.451C18.4794 114.451 18.789 114.532 19.039 114.694C19.289 114.853 19.478 115.066 19.6058 115.333C19.7336 115.597 19.7976 115.889 19.7976 116.207V116.667C19.7976 116.985 19.7322 117.278 19.6015 117.545C19.4737 117.809 19.2834 118.022 19.0305 118.184C18.7805 118.343 18.4737 118.423 18.1101 118.423C17.7408 118.423 17.4297 118.343 17.1768 118.184C16.924 118.022 16.7322 117.809 16.6015 117.545C16.4709 117.278 16.4055 116.985 16.4055 116.667ZM17.2748 116.207V116.667C17.2748 116.931 17.3373 117.168 17.4623 117.379C17.5873 117.586 17.8033 117.69 18.1101 117.69C18.4084 117.69 18.6186 117.586 18.7408 117.379C18.8658 117.168 18.9283 116.931 18.9283 116.667V116.207C18.9283 115.942 18.8686 115.707 18.7493 115.499C18.63 115.289 18.4169 115.184 18.1101 115.184C17.8118 115.184 17.5973 115.289 17.4666 115.499C17.3388 115.707 17.2748 115.942 17.2748 116.207ZM16.7294 123.298L22.7294 114.57H23.701L17.701 123.298H16.7294Z" fill="black"/>
<path d="M19.0305 160.994C18.5305 160.994 18.0802 160.894 17.6797 160.696C17.2791 160.497 16.9581 160.224 16.7166 159.877C16.4751 159.531 16.343 159.136 16.3203 158.693H17.343C17.3828 159.088 17.5618 159.414 17.88 159.673C18.201 159.928 18.5845 160.056 19.0305 160.056C19.3885 160.056 19.7067 159.973 19.9851 159.805C20.2663 159.637 20.4865 159.407 20.6456 159.115C20.8075 158.819 20.8885 158.485 20.8885 158.113C20.8885 157.732 20.8047 157.393 20.6371 157.095C20.4723 156.794 20.245 156.556 19.9552 156.383C19.6655 156.21 19.3345 156.122 18.9623 156.119C18.6953 156.116 18.4211 156.157 18.1399 156.242C17.8586 156.325 17.6271 156.431 17.4453 156.562L16.4567 156.443L16.9851 152.147H21.5192V153.085H17.8714L17.5646 155.659H17.6158C17.7947 155.517 18.0192 155.399 18.289 155.305C18.5589 155.211 18.8402 155.164 19.1328 155.164C19.6669 155.164 20.1427 155.292 20.5604 155.548C20.9808 155.801 21.3104 156.147 21.549 156.588C21.7905 157.028 21.9112 157.531 21.9112 158.096C21.9112 158.653 21.7862 159.15 21.5362 159.588C21.289 160.022 20.9481 160.366 20.5135 160.619C20.0788 160.869 19.5845 160.994 19.0305 160.994ZM26.4506 160.994C25.8086 160.994 25.2617 160.819 24.81 160.47C24.3583 160.117 24.0131 159.607 23.7745 158.94C23.5358 158.269 23.4165 157.46 23.4165 156.511C23.4165 155.568 23.5358 154.762 23.7745 154.095C24.016 153.424 24.3626 152.913 24.8143 152.561C25.2688 152.205 25.8143 152.028 26.4506 152.028C27.087 152.028 27.631 152.205 28.0827 152.561C28.5373 152.913 28.8839 153.424 29.1225 154.095C29.364 154.762 29.4847 155.568 29.4847 156.511C29.4847 157.46 29.3654 158.269 29.1268 158.94C28.8881 159.607 28.543 160.117 28.0912 160.47C27.6395 160.819 27.0927 160.994 26.4506 160.994ZM26.4506 160.056C27.087 160.056 27.5813 159.749 27.9336 159.136C28.2859 158.522 28.462 157.647 28.462 156.511C28.462 155.755 28.381 155.112 28.2191 154.58C28.06 154.049 27.8299 153.644 27.5287 153.366C27.2305 153.088 26.8711 152.948 26.4506 152.948C25.8199 152.948 25.327 153.259 24.9719 153.882C24.6168 154.501 24.4393 155.377 24.4393 156.511C24.4393 157.267 24.5188 157.909 24.6779 158.437C24.837 158.965 25.0657 159.367 25.364 159.643C25.6651 159.919 26.0273 160.056 26.4506 160.056ZM20.7521 174.238V173.778C20.7521 173.46 20.8175 173.169 20.9481 172.904C21.0817 172.637 21.2748 172.424 21.5277 172.265C21.7834 172.103 22.093 172.022 22.4567 172.022C22.826 172.022 23.1356 172.103 23.3856 172.265C23.6356 172.424 23.8246 172.637 23.9524 172.904C24.0802 173.169 24.1442 173.46 24.1442 173.778V174.238C24.1442 174.556 24.0788 174.849 23.9481 175.116C23.8203 175.38 23.63 175.593 23.3771 175.755C23.1271 175.914 22.8203 175.994 22.4567 175.994C22.0873 175.994 21.7763 175.914 21.5234 175.755C21.2706 175.593 21.0788 175.38 20.9481 175.116C20.8175 174.849 20.7521 174.556 20.7521 174.238ZM21.6214 173.778V174.238C21.6214 174.502 21.6839 174.74 21.8089 174.95C21.9339 175.157 22.1498 175.261 22.4567 175.261C22.755 175.261 22.9652 175.157 23.0873 174.95C23.2123 174.74 23.2748 174.502 23.2748 174.238V173.778C23.2748 173.514 23.2152 173.278 23.0959 173.071C22.9765 172.86 22.7635 172.755 22.4567 172.755C22.1584 172.755 21.9439 172.86 21.8132 173.071C21.6854 173.278 21.6214 173.514 21.6214 173.778ZM16.4055 169.244V168.784C16.4055 168.465 16.4709 168.174 16.6015 167.91C16.7351 167.643 16.9283 167.43 17.1811 167.271C17.4368 167.109 17.7464 167.028 18.1101 167.028C18.4794 167.028 18.789 167.109 19.039 167.271C19.289 167.43 19.478 167.643 19.6058 167.91C19.7336 168.174 19.7976 168.465 19.7976 168.784V169.244C19.7976 169.562 19.7322 169.855 19.6015 170.122C19.4737 170.386 19.2834 170.599 19.0305 170.761C18.7805 170.92 18.4737 170.999 18.1101 170.999C17.7408 170.999 17.4297 170.92 17.1768 170.761C16.924 170.599 16.7322 170.386 16.6015 170.122C16.4709 169.855 16.4055 169.562 16.4055 169.244ZM17.2748 168.784V169.244C17.2748 169.508 17.3373 169.745 17.4623 169.955C17.5873 170.163 17.8033 170.267 18.1101 170.267C18.4084 170.267 18.6186 170.163 18.7408 169.955C18.8658 169.745 18.9283 169.508 18.9283 169.244V168.784C18.9283 168.519 18.8686 168.284 18.7493 168.076C18.63 167.866 18.4169 167.761 18.1101 167.761C17.8118 167.761 17.5973 167.866 17.4666 168.076C17.3388 168.284 17.2748 168.519 17.2748 168.784ZM16.7294 175.874L22.7294 167.147H23.701L17.701 175.874H16.7294Z" fill="black"/>
<path d="M16.3033 217.602V216.835L19.1839 213.681C19.522 213.312 19.8004 212.991 20.0192 212.718C20.2379 212.443 20.3998 212.184 20.505 211.943C20.6129 211.698 20.6669 211.443 20.6669 211.176C20.6669 210.869 20.593 210.603 20.4453 210.379C20.3004 210.154 20.1015 209.981 19.8487 209.859C19.5959 209.737 19.3118 209.676 18.9964 209.676C18.6612 209.676 18.3686 209.745 18.1186 209.884C17.8714 210.021 17.6797 210.212 17.5433 210.46C17.4098 210.707 17.343 210.997 17.343 211.329H16.3373C16.3373 210.818 16.4552 210.369 16.691 209.982C16.9268 209.596 17.2479 209.295 17.6541 209.079C18.0632 208.863 18.522 208.755 19.0305 208.755C19.5419 208.755 19.995 208.863 20.3899 209.079C20.7848 209.295 21.0944 209.586 21.3189 209.953C21.5433 210.319 21.6555 210.727 21.6555 211.176C21.6555 211.497 21.5973 211.81 21.4808 212.117C21.3672 212.421 21.1683 212.761 20.8842 213.136C20.603 213.508 20.2123 213.962 19.7123 214.499L17.7521 216.596V216.664H21.8089V217.602H16.3033ZM26.2961 217.721C25.7961 217.721 25.3459 217.622 24.9453 217.423C24.5447 217.224 24.2237 216.951 23.9822 216.605C23.7408 216.258 23.6086 215.863 23.5859 215.42H24.6086C24.6484 215.815 24.8274 216.141 25.1456 216.4C25.4666 216.656 25.8501 216.784 26.2961 216.784C26.6541 216.784 26.9723 216.7 27.2507 216.532C27.5319 216.364 27.7521 216.134 27.9112 215.842C28.0731 215.546 28.1541 215.212 28.1541 214.84C28.1541 214.46 28.0703 214.12 27.9027 213.822C27.7379 213.521 27.5106 213.284 27.2209 213.11C26.9311 212.937 26.6001 212.849 26.228 212.846C25.9609 212.843 25.6868 212.884 25.4055 212.97C25.1243 213.052 24.8927 213.159 24.7109 213.289L23.7223 213.17L24.2507 208.874H28.7848V209.812H25.1371L24.8302 212.386H24.8814C25.0604 212.244 25.2848 212.126 25.5547 212.032C25.8246 211.938 26.1058 211.891 26.3984 211.891C26.9325 211.891 27.4084 212.019 27.826 212.275C28.2464 212.528 28.576 212.874 28.8146 213.315C29.0561 213.755 29.1768 214.258 29.1768 214.823C29.1768 215.38 29.0518 215.877 28.8018 216.315C28.5547 216.749 28.2138 217.093 27.7791 217.346C27.3444 217.596 26.8501 217.721 26.2961 217.721ZM20.7521 230.965V230.505C20.7521 230.187 20.8175 229.896 20.9481 229.632C21.0817 229.364 21.2748 229.151 21.5277 228.992C21.7834 228.83 22.093 228.749 22.4567 228.749C22.826 228.749 23.1356 228.83 23.3856 228.992C23.6356 229.151 23.8246 229.364 23.9524 229.632C24.0802 229.896 24.1442 230.187 24.1442 230.505V230.965C24.1442 231.284 24.0788 231.576 23.9481 231.843C23.8203 232.107 23.63 232.32 23.3771 232.482C23.1271 232.641 22.8203 232.721 22.4567 232.721C22.0873 232.721 21.7763 232.641 21.5234 232.482C21.2706 232.32 21.0788 232.107 20.9481 231.843C20.8175 231.576 20.7521 231.284 20.7521 230.965ZM21.6214 230.505V230.965C21.6214 231.23 21.6839 231.467 21.8089 231.677C21.9339 231.884 22.1498 231.988 22.4567 231.988C22.755 231.988 22.9652 231.884 23.0873 231.677C23.2123 231.467 23.2748 231.23 23.2748 230.965V230.505C23.2748 230.241 23.2152 230.005 23.0959 229.798C22.9765 229.587 22.7635 229.482 22.4567 229.482C22.1584 229.482 21.9439 229.587 21.8132 229.798C21.6854 230.005 21.6214 230.241 21.6214 230.505ZM16.4055 225.971V225.511C16.4055 225.193 16.4709 224.901 16.6015 224.637C16.7351 224.37 16.9283 224.157 17.1811 223.998C17.4368 223.836 17.7464 223.755 18.1101 223.755C18.4794 223.755 18.789 223.836 19.039 223.998C19.289 224.157 19.478 224.37 19.6058 224.637C19.7336 224.901 19.7976 225.193 19.7976 225.511V225.971C19.7976 226.289 19.7322 226.582 19.6015 226.849C19.4737 227.113 19.2834 227.326 19.0305 227.488C18.7805 227.647 18.4737 227.727 18.1101 227.727C17.7408 227.727 17.4297 227.647 17.1768 227.488C16.924 227.326 16.7322 227.113 16.6015 226.849C16.4709 226.582 16.4055 226.289 16.4055 225.971ZM17.2748 225.511V225.971C17.2748 226.235 17.3373 226.472 17.4623 226.683C17.5873 226.89 17.8033 226.994 18.1101 226.994C18.4084 226.994 18.6186 226.89 18.7408 226.683C18.8658 226.472 18.9283 226.235 18.9283 225.971V225.511C18.9283 225.247 18.8686 225.011 18.7493 224.803C18.63 224.593 18.4169 224.488 18.1101 224.488C17.8118 224.488 17.5973 224.593 17.4666 224.803C17.3388 225.011 17.2748 225.247 17.2748 225.511ZM16.7294 232.602L22.7294 223.874H23.701L17.701 232.602H16.7294Z" fill="black"/>
<path d="M66.627 68.2801H74.6451V242.613H66.627V68.2801Z" fill="#0075A9"/>
<path d="M129.436 95.2598H135.672V241.921H129.436V95.2598Z" fill="#0075A9"/>
<path d="M288.908 96.2976H295.145V242.959H288.908V96.2976Z" fill="#0075A9"/>
<path d="M206.054 125.353H214.072V242.267H206.054V125.353Z" fill="#0075A9"/>
</svg>
