<svg width="389" height="131" viewBox="0 0 389 131" fill="none" xmlns="http://www.w3.org/2000/svg">
<path d="M2.70971 9.08691C2.32069 9.08691 1.97098 9.01242 1.66059 8.86343C1.35227 8.71237 1.10603 8.50544 0.92186 8.24265C0.737695 7.97985 0.639405 7.6798 0.626989 7.34251H1.55816C1.58092 7.61566 1.70198 7.84017 1.92132 8.01606C2.14066 8.19195 2.40346 8.27989 2.70971 8.27989C2.95388 8.27989 3.17012 8.22402 3.35843 8.11228C3.5488 7.99847 3.69779 7.84224 3.80539 7.64359C3.91506 7.44494 3.9699 7.21836 3.9699 6.96384C3.9699 6.70518 3.91403 6.47445 3.80229 6.27167C3.69055 6.06888 3.53638 5.90954 3.3398 5.79366C3.14529 5.67779 2.92181 5.61881 2.66936 5.61674C2.47692 5.61674 2.28344 5.64985 2.08893 5.71607C1.89442 5.78228 1.73715 5.86919 1.61714 5.97679L0.73873 5.84643L1.09568 2.6432H4.59068V3.46573H1.89338L1.69163 5.24427H1.72888C1.85303 5.12426 2.01754 5.0239 2.2224 4.94319C2.42932 4.86249 2.65074 4.82214 2.88663 4.82214C3.27359 4.82214 3.61812 4.91422 3.92023 5.09839C4.22442 5.28255 4.46342 5.53397 4.63724 5.85264C4.81312 6.16924 4.90003 6.53343 4.89796 6.94521C4.90003 7.357 4.80692 7.72429 4.61861 8.0471C4.43238 8.36991 4.17372 8.62443 3.84264 8.81066C3.51362 8.99483 3.13598 9.08691 2.70971 9.08691ZM7.80772 9.10553C7.3173 9.10346 6.89828 8.97413 6.55064 8.71754C6.203 8.46095 5.9371 8.08745 5.75294 7.59703C5.56877 7.10662 5.47669 6.51584 5.47669 5.8247C5.47669 5.13564 5.56877 4.54693 5.75294 4.05858C5.93917 3.57023 6.20611 3.19776 6.55374 2.94117C6.90345 2.68458 7.32144 2.55629 7.80772 2.55629C8.294 2.55629 8.71096 2.68562 9.0586 2.94428C9.40623 3.20087 9.67214 3.57334 9.8563 4.06168C10.0425 4.54796 10.1357 5.13564 10.1357 5.8247C10.1357 6.51791 10.0436 7.10972 9.8594 7.60014C9.67524 8.08849 9.40934 8.46199 9.0617 8.72065C8.71406 8.97724 8.29607 9.10553 7.80772 9.10553ZM7.80772 8.27679C8.23813 8.27679 8.57439 8.06676 8.81649 7.6467C9.06067 7.22663 9.18275 6.6193 9.18275 5.8247C9.18275 5.29704 9.12688 4.85111 9.01514 4.48692C8.90547 4.12066 8.74717 3.84338 8.54024 3.65507C8.33539 3.4647 8.09121 3.36951 7.80772 3.36951C7.37938 3.36951 7.04313 3.58058 6.79895 4.00271C6.55478 4.42484 6.43166 5.03217 6.42959 5.8247C6.42959 6.35444 6.48442 6.80243 6.59409 7.16869C6.70584 7.53289 6.86413 7.80913 7.06899 7.99744C7.27385 8.18367 7.52009 8.27679 7.80772 8.27679Z" fill="#464646"/>
<path d="M3.02321 40.9909V47.3477H2.06099V41.9532H2.02375L0.502833 42.9464V42.0277L2.08893 40.9909H3.02321ZM6.51883 47.4533C6.02841 47.4512 5.60938 47.3219 5.26174 47.0653C4.91411 46.8087 4.6482 46.4352 4.46404 45.9448C4.27987 45.4544 4.18779 44.8636 4.18779 44.1725C4.18779 43.4834 4.27987 42.8947 4.46404 42.4063C4.65027 41.918 4.91721 41.5455 5.26485 41.2889C5.61455 41.0323 6.03255 40.904 6.51883 40.904C7.0051 40.904 7.42206 41.0334 7.7697 41.292C8.11734 41.5486 8.38324 41.9211 8.5674 42.4094C8.75364 42.8957 8.84676 43.4834 8.84676 44.1725C8.84676 44.8657 8.75467 45.4575 8.57051 45.9479C8.38634 46.4362 8.12044 46.8097 7.7728 47.0684C7.42517 47.325 7.00717 47.4533 6.51883 47.4533ZM6.51883 46.6245C6.94923 46.6245 7.28549 46.4145 7.52759 45.9944C7.77177 45.5744 7.89386 44.9671 7.89386 44.1725C7.89386 43.6448 7.83799 43.1989 7.72624 42.8347C7.61657 42.4684 7.45827 42.1911 7.25135 42.0028C7.04649 41.8124 6.80232 41.7173 6.51883 41.7173C6.09049 41.7173 5.75423 41.9283 5.51006 42.3505C5.26588 42.7726 5.14276 43.3799 5.14069 44.1725C5.14069 44.7022 5.19553 45.1502 5.3052 45.5164C5.41694 45.8806 5.57524 46.1569 5.7801 46.3452C5.98495 46.5314 6.2312 46.6245 6.51883 46.6245Z" fill="#464646"/>
<path d="M2.70971 85.7824C2.32069 85.7824 1.97098 85.7079 1.66059 85.5589C1.35227 85.4079 1.10603 85.2009 0.92186 84.9381C0.737695 84.6753 0.639405 84.3753 0.626989 84.038H1.55816C1.58092 84.3112 1.70198 84.5357 1.92132 84.7116C2.14066 84.8874 2.40346 84.9754 2.70971 84.9754C2.95388 84.9754 3.17012 84.9195 3.35843 84.8078C3.5488 84.694 3.69779 84.5377 3.80539 84.3391C3.91506 84.1404 3.9699 83.9139 3.9699 83.6593C3.9699 83.4007 3.91403 83.17 3.80229 82.9672C3.69055 82.7644 3.53638 82.605 3.3398 82.4892C3.14529 82.3733 2.92181 82.3143 2.66936 82.3122C2.47692 82.3122 2.28344 82.3453 2.08893 82.4116C1.89442 82.4778 1.73715 82.5647 1.61714 82.6723L0.73873 82.5419L1.09568 79.3387H4.59068V80.1612H1.89338L1.69163 81.9398H1.72888C1.85303 81.8198 2.01754 81.7194 2.2224 81.6387C2.42932 81.558 2.65074 81.5176 2.88663 81.5176C3.27359 81.5176 3.61812 81.6097 3.92023 81.7939C4.22442 81.978 4.46342 82.2295 4.63724 82.5481C4.81312 82.8647 4.90003 83.2289 4.89796 83.6407C4.90003 84.0525 4.80692 84.4198 4.61861 84.7426C4.43238 85.0654 4.17372 85.3199 3.84264 85.5062C3.51362 85.6903 3.13598 85.7824 2.70971 85.7824Z" fill="#464646"/>
<path d="M2.82456 124.149C2.33414 124.147 1.91511 124.017 1.56747 123.761C1.21984 123.504 0.953934 123.131 0.769769 122.64C0.585604 122.15 0.493521 121.559 0.493521 120.868C0.493521 120.179 0.585604 119.59 0.769769 119.102C0.956003 118.613 1.22294 118.241 1.57058 117.984C1.92028 117.728 2.33828 117.6 2.82456 117.6C3.31083 117.6 3.72779 117.729 4.07543 117.988C4.42307 118.244 4.68897 118.617 4.87313 119.105C5.05937 119.591 5.15249 120.179 5.15249 120.868C5.15249 121.561 5.0604 122.153 4.87624 122.643C4.69207 123.132 4.42617 123.505 4.07853 123.764C3.7309 124.02 3.3129 124.149 2.82456 124.149ZM2.82456 123.32C3.25496 123.32 3.59122 123.11 3.83332 122.69C4.0775 122.27 4.19959 121.663 4.19959 120.868C4.19959 120.34 4.14372 119.894 4.03198 119.53C3.9223 119.164 3.764 118.887 3.55708 118.698C3.35222 118.508 3.10805 118.413 2.82456 118.413C2.39622 118.413 2.05996 118.624 1.81579 119.046C1.57161 119.468 1.44849 120.075 1.44642 120.868C1.44642 121.398 1.50126 121.846 1.61093 122.212C1.72267 122.576 1.88097 122.852 2.08583 123.041C2.29068 123.227 2.53693 123.32 2.82456 123.32Z" fill="#464646"/>
<line opacity="0.4" x1="18.2107" y1="7.86273" x2="388.375" y2="6.98971" stroke="#CCCCCC" stroke-width="0.43703" stroke-linecap="round" stroke-dasharray="8.74 6.99"/>
<line opacity="0.4" x1="18.2107" y1="45.4473" x2="388.375" y2="44.5743" stroke="#CCCCCC" stroke-width="0.43703" stroke-linecap="round" stroke-dasharray="8.74 6.99"/>
<line opacity="0.4" x1="18.2107" y1="83.0319" x2="388.375" y2="82.1589" stroke="#CCCCCC" stroke-width="0.43703" stroke-linecap="round" stroke-dasharray="8.74 6.99"/>
<line opacity="0.4" x1="18.2107" y1="120.616" x2="388.375" y2="119.743" stroke="#CCCCCC" stroke-width="0.43703" stroke-linecap="round" stroke-dasharray="8.74 6.99"/>
<rect x="27.1704" y="37.7998" width="23.5996" height="92.6504" rx="5.24436" fill="#F6F4FE"/>
<mask id="mask0_1920_1109" style="mask-type:alpha" maskUnits="userSpaceOnUse" x="27" y="37" width="24" height="94">
<rect x="27.1704" y="37.7998" width="23.5996" height="92.6504" rx="3.49624" fill="#D9D9D9"/>
</mask>
<g mask="url(#mask0_1920_1109)">
<path d="M27.5739 -78.7754L27.5739 244.627" stroke="url(#paint0_linear_1920_1109)" stroke-width="1.31109"/>
<path d="M30.196 -78.7754L30.196 244.627" stroke="url(#paint1_linear_1920_1109)" stroke-width="1.31109"/>
<path d="M32.818 -78.7754L32.818 244.627" stroke="url(#paint2_linear_1920_1109)" stroke-width="1.31109"/>
<path d="M35.4406 -78.7754L35.4406 244.627" stroke="url(#paint3_linear_1920_1109)" stroke-width="1.31109"/>
<path d="M38.0627 -78.7754L38.0627 244.627" stroke="url(#paint4_linear_1920_1109)" stroke-width="1.31109"/>
<path d="M40.6847 -78.7754L40.6847 244.627" stroke="url(#paint5_linear_1920_1109)" stroke-width="1.31109"/>
<path d="M43.3068 -78.7754L43.3068 244.627" stroke="url(#paint6_linear_1920_1109)" stroke-width="1.31109"/>
<path d="M45.9294 -78.7754L45.9294 244.627" stroke="url(#paint7_linear_1920_1109)" stroke-width="1.31109"/>
<path d="M48.5514 -78.7754L48.5514 244.627" stroke="url(#paint8_linear_1920_1109)" stroke-width="1.31109"/>
<path d="M51.1735 -78.7754L51.1735 244.627" stroke="url(#paint9_linear_1920_1109)" stroke-width="1.31109"/>
</g>
<rect x="27.1704" y="68.3919" width="23.5996" height="62.0583" rx="3.49624" fill="url(#paint10_linear_1920_1109)"/>
<rect x="68.2515" y="8.08177" width="23.5996" height="122.368" rx="5.24436" fill="#F6F4FE"/>
<mask id="mask1_1920_1109" style="mask-type:alpha" maskUnits="userSpaceOnUse" x="68" y="8" width="24" height="123">
<rect x="68.2515" y="8.08177" width="23.5996" height="122.368" rx="3.49624" fill="#D9D9D9"/>
</mask>
<g mask="url(#mask1_1920_1109)">
<path d="M68.6549 -93.4934L68.6549 229.909" stroke="url(#paint11_linear_1920_1109)" stroke-width="1.31109"/>
<path d="M71.277 -93.4934L71.277 229.909" stroke="url(#paint12_linear_1920_1109)" stroke-width="1.31109"/>
<path d="M73.8991 -93.4934L73.8991 229.909" stroke="url(#paint13_linear_1920_1109)" stroke-width="1.31109"/>
<path d="M76.5216 -93.4934L76.5216 229.909" stroke="url(#paint14_linear_1920_1109)" stroke-width="1.31109"/>
<path d="M79.1437 -93.4934L79.1437 229.909" stroke="url(#paint15_linear_1920_1109)" stroke-width="1.31109"/>
<path d="M81.7658 -93.4934L81.7658 229.909" stroke="url(#paint16_linear_1920_1109)" stroke-width="1.31109"/>
<path d="M84.3879 -93.4934L84.3879 229.909" stroke="url(#paint17_linear_1920_1109)" stroke-width="1.31109"/>
<path d="M87.0104 -93.4934L87.0104 229.909" stroke="url(#paint18_linear_1920_1109)" stroke-width="1.31109"/>
<path d="M89.6325 -93.4934L89.6325 229.909" stroke="url(#paint19_linear_1920_1109)" stroke-width="1.31109"/>
<path d="M92.2546 -93.4934L92.2546 229.909" stroke="url(#paint20_linear_1920_1109)" stroke-width="1.31109"/>
</g>
<rect x="68.2515" y="104.228" width="23.5996" height="26.2218" rx="3.49624" fill="url(#paint21_linear_1920_1109)"/>
<rect x="109.332" y="82.3769" width="23.5996" height="48.0733" rx="5.24436" fill="#F6F4FE"/>
<mask id="mask2_1920_1109" style="mask-type:alpha" maskUnits="userSpaceOnUse" x="109" y="82" width="24" height="49">
<rect x="109.332" y="82.3769" width="23.5996" height="48.0733" rx="3.49624" fill="#D9D9D9"/>
</mask>
<g mask="url(#mask2_1920_1109)">
<path d="M109.736 -56.1983L109.736 267.204" stroke="url(#paint22_linear_1920_1109)" stroke-width="1.31109"/>
<path d="M112.358 -56.1983L112.358 267.204" stroke="url(#paint23_linear_1920_1109)" stroke-width="1.31109"/>
<path d="M114.98 -56.1983L114.98 267.204" stroke="url(#paint24_linear_1920_1109)" stroke-width="1.31109"/>
<path d="M117.602 -56.1983L117.602 267.204" stroke="url(#paint25_linear_1920_1109)" stroke-width="1.31109"/>
<path d="M120.224 -56.1983L120.224 267.204" stroke="url(#paint26_linear_1920_1109)" stroke-width="1.31109"/>
<path d="M122.846 -56.1983L122.846 267.204" stroke="url(#paint27_linear_1920_1109)" stroke-width="1.31109"/>
<path d="M125.468 -56.1983L125.468 267.204" stroke="url(#paint28_linear_1920_1109)" stroke-width="1.31109"/>
<path d="M128.091 -56.1983L128.091 267.204" stroke="url(#paint29_linear_1920_1109)" stroke-width="1.31109"/>
<path d="M130.713 -56.1983L130.713 267.204" stroke="url(#paint30_linear_1920_1109)" stroke-width="1.31109"/>
<path d="M133.335 -56.1983L133.335 267.204" stroke="url(#paint31_linear_1920_1109)" stroke-width="1.31109"/>
</g>
<rect x="109.332" y="82.3769" width="23.5996" height="48.0733" rx="3.49624" fill="url(#paint32_linear_1920_1109)"/>
<rect x="150.413" y="37.7998" width="23.5996" height="92.6504" rx="5.24436" fill="#F6F4FE"/>
<mask id="mask3_1920_1109" style="mask-type:alpha" maskUnits="userSpaceOnUse" x="150" y="37" width="25" height="94">
<rect x="150.413" y="37.7998" width="23.5996" height="92.6504" rx="3.49624" fill="#D9D9D9"/>
</mask>
<g mask="url(#mask3_1920_1109)">
<path d="M150.817 -78.7754L150.817 244.627" stroke="url(#paint33_linear_1920_1109)" stroke-width="1.31109"/>
<path d="M153.439 -78.7754L153.439 244.627" stroke="url(#paint34_linear_1920_1109)" stroke-width="1.31109"/>
<path d="M156.061 -78.7754L156.061 244.627" stroke="url(#paint35_linear_1920_1109)" stroke-width="1.31109"/>
<path d="M158.683 -78.7754L158.683 244.627" stroke="url(#paint36_linear_1920_1109)" stroke-width="1.31109"/>
<path d="M161.305 -78.7754L161.305 244.627" stroke="url(#paint37_linear_1920_1109)" stroke-width="1.31109"/>
<path d="M163.927 -78.7754L163.927 244.627" stroke="url(#paint38_linear_1920_1109)" stroke-width="1.31109"/>
<path d="M166.549 -78.7754L166.549 244.627" stroke="url(#paint39_linear_1920_1109)" stroke-width="1.31109"/>
<path d="M169.172 -78.7754L169.172 244.627" stroke="url(#paint40_linear_1920_1109)" stroke-width="1.31109"/>
<path d="M171.794 -78.7754L171.794 244.627" stroke="url(#paint41_linear_1920_1109)" stroke-width="1.31109"/>
<path d="M174.416 -78.7754L174.416 244.627" stroke="url(#paint42_linear_1920_1109)" stroke-width="1.31109"/>
</g>
<rect x="150.413" y="68.3919" width="23.5996" height="62.0583" rx="3.49624" fill="url(#paint43_linear_1920_1109)"/>
<rect x="191.494" y="53.5329" width="23.5996" height="76.9173" rx="5.24436" fill="#F6F4FE"/>
<mask id="mask4_1920_1109" style="mask-type:alpha" maskUnits="userSpaceOnUse" x="191" y="53" width="25" height="78">
<rect x="191.494" y="53.5329" width="23.5996" height="76.9173" rx="3.49624" fill="#D9D9D9"/>
</mask>
<g mask="url(#mask4_1920_1109)">
<path d="M191.897 -71.0423L191.897 252.36" stroke="url(#paint44_linear_1920_1109)" stroke-width="1.31109"/>
<path d="M194.519 -71.0423L194.519 252.36" stroke="url(#paint45_linear_1920_1109)" stroke-width="1.31109"/>
<path d="M197.141 -71.0423L197.141 252.36" stroke="url(#paint46_linear_1920_1109)" stroke-width="1.31109"/>
<path d="M199.764 -71.0423L199.764 252.36" stroke="url(#paint47_linear_1920_1109)" stroke-width="1.31109"/>
<path d="M202.386 -71.0423L202.386 252.36" stroke="url(#paint48_linear_1920_1109)" stroke-width="1.31109"/>
<path d="M205.008 -71.0423L205.008 252.36" stroke="url(#paint49_linear_1920_1109)" stroke-width="1.31109"/>
<path d="M207.63 -71.0423L207.63 252.36" stroke="url(#paint50_linear_1920_1109)" stroke-width="1.31109"/>
<path d="M210.253 -71.0423L210.253 252.36" stroke="url(#paint51_linear_1920_1109)" stroke-width="1.31109"/>
<path d="M212.875 -71.0423L212.875 252.36" stroke="url(#paint52_linear_1920_1109)" stroke-width="1.31109"/>
<path d="M215.497 -71.0423L215.497 252.36" stroke="url(#paint53_linear_1920_1109)" stroke-width="1.31109"/>
</g>
<rect x="191.494" y="102.48" width="23.5996" height="27.9699" rx="3.49624" fill="url(#paint54_linear_1920_1109)"/>
<rect x="232.575" y="7.20771" width="23.5996" height="123.242" rx="5.24436" fill="#F6F4FE"/>
<mask id="mask5_1920_1109" style="mask-type:alpha" maskUnits="userSpaceOnUse" x="232" y="7" width="25" height="124">
<rect x="232.575" y="7.20771" width="23.5996" height="123.242" rx="3.49624" fill="#D9D9D9"/>
</mask>
<g mask="url(#mask5_1920_1109)">
<path d="M232.978 -93.3675L232.978 230.035" stroke="url(#paint55_linear_1920_1109)" stroke-width="1.31109"/>
<path d="M235.6 -93.3675L235.6 230.035" stroke="url(#paint56_linear_1920_1109)" stroke-width="1.31109"/>
<path d="M238.222 -93.3675L238.222 230.035" stroke="url(#paint57_linear_1920_1109)" stroke-width="1.31109"/>
<path d="M240.845 -93.3675L240.845 230.035" stroke="url(#paint58_linear_1920_1109)" stroke-width="1.31109"/>
<path d="M243.467 -93.3675L243.467 230.035" stroke="url(#paint59_linear_1920_1109)" stroke-width="1.31109"/>
<path d="M246.089 -93.3675L246.089 230.035" stroke="url(#paint60_linear_1920_1109)" stroke-width="1.31109"/>
<path d="M248.711 -93.3675L248.711 230.035" stroke="url(#paint61_linear_1920_1109)" stroke-width="1.31109"/>
<path d="M251.334 -93.3675L251.334 230.035" stroke="url(#paint62_linear_1920_1109)" stroke-width="1.31109"/>
<path d="M253.956 -93.3675L253.956 230.035" stroke="url(#paint63_linear_1920_1109)" stroke-width="1.31109"/>
<path d="M256.578 -93.3675V230.035" stroke="url(#paint64_linear_1920_1109)" stroke-width="1.31109"/>
</g>
<rect x="232.575" y="102.48" width="23.5996" height="27.9699" rx="3.49624" fill="url(#paint65_linear_1920_1109)"/>
<rect x="273.655" y="29.9333" width="23.5996" height="100.517" rx="5.24436" fill="#F6F4FE"/>
<mask id="mask6_1920_1109" style="mask-type:alpha" maskUnits="userSpaceOnUse" x="273" y="29" width="25" height="102">
<rect x="273.655" y="29.9333" width="23.5996" height="100.517" rx="3.49624" fill="#D9D9D9"/>
</mask>
<g mask="url(#mask6_1920_1109)">
<path d="M274.059 -82.6419V240.76" stroke="url(#paint66_linear_1920_1109)" stroke-width="1.31109"/>
<path d="M276.681 -82.6419V240.76" stroke="url(#paint67_linear_1920_1109)" stroke-width="1.31109"/>
<path d="M279.303 -82.6419V240.76" stroke="url(#paint68_linear_1920_1109)" stroke-width="1.31109"/>
<path d="M281.925 -82.6419V240.76" stroke="url(#paint69_linear_1920_1109)" stroke-width="1.31109"/>
<path d="M284.548 -82.6419V240.76" stroke="url(#paint70_linear_1920_1109)" stroke-width="1.31109"/>
<path d="M287.17 -82.6419V240.76" stroke="url(#paint71_linear_1920_1109)" stroke-width="1.31109"/>
<path d="M289.792 -82.6419V240.76" stroke="url(#paint72_linear_1920_1109)" stroke-width="1.31109"/>
<path d="M292.414 -82.6419V240.76" stroke="url(#paint73_linear_1920_1109)" stroke-width="1.31109"/>
<path d="M295.036 -82.6419V240.76" stroke="url(#paint74_linear_1920_1109)" stroke-width="1.31109"/>
<path d="M297.658 -82.6419V240.76" stroke="url(#paint75_linear_1920_1109)" stroke-width="1.31109"/>
</g>
<rect x="273.655" y="29.9333" width="23.5996" height="100.517" rx="3.49624" fill="url(#paint76_linear_1920_1109)"/>
<rect x="314.736" y="56.1551" width="23.5996" height="74.2951" rx="5.24436" fill="#F6F4FE"/>
<mask id="mask7_1920_1109" style="mask-type:alpha" maskUnits="userSpaceOnUse" x="314" y="56" width="25" height="75">
<rect x="314.736" y="56.1551" width="23.5996" height="74.2951" rx="3.49624" fill="#D9D9D9"/>
</mask>
<g mask="url(#mask7_1920_1109)">
<path d="M315.14 -69.4201V253.982" stroke="url(#paint77_linear_1920_1109)" stroke-width="1.31109"/>
<path d="M317.762 -69.4201V253.982" stroke="url(#paint78_linear_1920_1109)" stroke-width="1.31109"/>
<path d="M320.384 -69.4201V253.982" stroke="url(#paint79_linear_1920_1109)" stroke-width="1.31109"/>
<path d="M323.007 -69.4201V253.982" stroke="url(#paint80_linear_1920_1109)" stroke-width="1.31109"/>
<path d="M325.629 -69.4201V253.982" stroke="url(#paint81_linear_1920_1109)" stroke-width="1.31109"/>
<path d="M328.251 -69.4201V253.982" stroke="url(#paint82_linear_1920_1109)" stroke-width="1.31109"/>
<path d="M330.873 -69.4201V253.982" stroke="url(#paint83_linear_1920_1109)" stroke-width="1.31109"/>
<path d="M333.495 -69.4201V253.982" stroke="url(#paint84_linear_1920_1109)" stroke-width="1.31109"/>
<path d="M336.117 -69.4201V253.982" stroke="url(#paint85_linear_1920_1109)" stroke-width="1.31109"/>
<path d="M338.739 -69.4201V253.982" stroke="url(#paint86_linear_1920_1109)" stroke-width="1.31109"/>
</g>
<rect x="314.736" y="68.3919" width="23.5996" height="62.0583" rx="3.49624" fill="url(#paint87_linear_1920_1109)"/>
<rect x="355.817" y="29.9333" width="23.5996" height="100.517" rx="5.24436" fill="#F6F4FE"/>
<mask id="mask8_1920_1109" style="mask-type:alpha" maskUnits="userSpaceOnUse" x="355" y="29" width="25" height="102">
<rect x="355.817" y="29.9333" width="23.5996" height="100.517" rx="3.49624" fill="#D9D9D9"/>
</mask>
<g mask="url(#mask8_1920_1109)">
<path d="M356.22 -82.6419V240.76" stroke="url(#paint88_linear_1920_1109)" stroke-width="1.31109"/>
<path d="M358.842 -82.6419V240.76" stroke="url(#paint89_linear_1920_1109)" stroke-width="1.31109"/>
<path d="M361.465 -82.6419V240.76" stroke="url(#paint90_linear_1920_1109)" stroke-width="1.31109"/>
<path d="M364.087 -82.6419V240.76" stroke="url(#paint91_linear_1920_1109)" stroke-width="1.31109"/>
<path d="M366.709 -82.6419V240.76" stroke="url(#paint92_linear_1920_1109)" stroke-width="1.31109"/>
<path d="M369.331 -82.6419V240.76" stroke="url(#paint93_linear_1920_1109)" stroke-width="1.31109"/>
<path d="M371.953 -82.6419V240.76" stroke="url(#paint94_linear_1920_1109)" stroke-width="1.31109"/>
<path d="M374.576 -82.6419V240.76" stroke="url(#paint95_linear_1920_1109)" stroke-width="1.31109"/>
<path d="M377.198 -82.6419V240.76" stroke="url(#paint96_linear_1920_1109)" stroke-width="1.31109"/>
<path d="M379.82 -82.6419V240.76" stroke="url(#paint97_linear_1920_1109)" stroke-width="1.31109"/>
</g>
<rect x="355.817" y="56.1551" width="23.5996" height="74.2951" rx="3.49624" fill="url(#paint98_linear_1920_1109)"/>
<defs>
<linearGradient id="paint0_linear_1920_1109" x1="27.3315" y1="125.98" x2="26.0894" y2="125.984" gradientUnits="userSpaceOnUse">
<stop stop-color="#E6E5FB"/>
<stop offset="1" stop-color="#FEFDFF"/>
</linearGradient>
<linearGradient id="paint1_linear_1920_1109" x1="29.9536" y1="125.98" x2="28.7115" y2="125.984" gradientUnits="userSpaceOnUse">
<stop stop-color="#E6E5FB"/>
<stop offset="1" stop-color="#FEFDFF"/>
</linearGradient>
<linearGradient id="paint2_linear_1920_1109" x1="32.5756" y1="125.98" x2="31.3336" y2="125.984" gradientUnits="userSpaceOnUse">
<stop stop-color="#E6E5FB"/>
<stop offset="1" stop-color="#FEFDFF"/>
</linearGradient>
<linearGradient id="paint3_linear_1920_1109" x1="35.1982" y1="125.98" x2="33.9561" y2="125.984" gradientUnits="userSpaceOnUse">
<stop stop-color="#E6E5FB"/>
<stop offset="1" stop-color="#FEFDFF"/>
</linearGradient>
<linearGradient id="paint4_linear_1920_1109" x1="37.8203" y1="125.98" x2="36.5782" y2="125.984" gradientUnits="userSpaceOnUse">
<stop stop-color="#E6E5FB"/>
<stop offset="1" stop-color="#FEFDFF"/>
</linearGradient>
<linearGradient id="paint5_linear_1920_1109" x1="40.4423" y1="125.98" x2="39.2003" y2="125.984" gradientUnits="userSpaceOnUse">
<stop stop-color="#E6E5FB"/>
<stop offset="1" stop-color="#FEFDFF"/>
</linearGradient>
<linearGradient id="paint6_linear_1920_1109" x1="43.0644" y1="125.98" x2="41.8223" y2="125.984" gradientUnits="userSpaceOnUse">
<stop stop-color="#E6E5FB"/>
<stop offset="1" stop-color="#FEFDFF"/>
</linearGradient>
<linearGradient id="paint7_linear_1920_1109" x1="45.687" y1="125.98" x2="44.4449" y2="125.984" gradientUnits="userSpaceOnUse">
<stop stop-color="#E6E5FB"/>
<stop offset="1" stop-color="#FEFDFF"/>
</linearGradient>
<linearGradient id="paint8_linear_1920_1109" x1="48.309" y1="125.98" x2="47.067" y2="125.984" gradientUnits="userSpaceOnUse">
<stop stop-color="#E6E5FB"/>
<stop offset="1" stop-color="#FEFDFF"/>
</linearGradient>
<linearGradient id="paint9_linear_1920_1109" x1="50.9311" y1="125.98" x2="49.689" y2="125.984" gradientUnits="userSpaceOnUse">
<stop stop-color="#E6E5FB"/>
<stop offset="1" stop-color="#FEFDFF"/>
</linearGradient>
<linearGradient id="paint10_linear_1920_1109" x1="38.9702" y1="68.3919" x2="39.3933" y2="115.154" gradientUnits="userSpaceOnUse">
<stop stop-color="#6192DB" stop-opacity="0.38"/>
<stop offset="1" stop-color="#61A0DB" stop-opacity="0.94"/>
</linearGradient>
<linearGradient id="paint11_linear_1920_1109" x1="68.4125" y1="111.262" x2="67.1705" y2="111.266" gradientUnits="userSpaceOnUse">
<stop stop-color="#E6E5FB"/>
<stop offset="1" stop-color="#FEFDFF"/>
</linearGradient>
<linearGradient id="paint12_linear_1920_1109" x1="71.0346" y1="111.262" x2="69.7926" y2="111.266" gradientUnits="userSpaceOnUse">
<stop stop-color="#E6E5FB"/>
<stop offset="1" stop-color="#FEFDFF"/>
</linearGradient>
<linearGradient id="paint13_linear_1920_1109" x1="73.6567" y1="111.262" x2="72.4146" y2="111.266" gradientUnits="userSpaceOnUse">
<stop stop-color="#E6E5FB"/>
<stop offset="1" stop-color="#FEFDFF"/>
</linearGradient>
<linearGradient id="paint14_linear_1920_1109" x1="76.2792" y1="111.262" x2="75.0372" y2="111.266" gradientUnits="userSpaceOnUse">
<stop stop-color="#E6E5FB"/>
<stop offset="1" stop-color="#FEFDFF"/>
</linearGradient>
<linearGradient id="paint15_linear_1920_1109" x1="78.9013" y1="111.262" x2="77.6593" y2="111.266" gradientUnits="userSpaceOnUse">
<stop stop-color="#E6E5FB"/>
<stop offset="1" stop-color="#FEFDFF"/>
</linearGradient>
<linearGradient id="paint16_linear_1920_1109" x1="81.5234" y1="111.262" x2="80.2813" y2="111.266" gradientUnits="userSpaceOnUse">
<stop stop-color="#E6E5FB"/>
<stop offset="1" stop-color="#FEFDFF"/>
</linearGradient>
<linearGradient id="paint17_linear_1920_1109" x1="84.1454" y1="111.262" x2="82.9034" y2="111.266" gradientUnits="userSpaceOnUse">
<stop stop-color="#E6E5FB"/>
<stop offset="1" stop-color="#FEFDFF"/>
</linearGradient>
<linearGradient id="paint18_linear_1920_1109" x1="86.768" y1="111.262" x2="85.526" y2="111.266" gradientUnits="userSpaceOnUse">
<stop stop-color="#E6E5FB"/>
<stop offset="1" stop-color="#FEFDFF"/>
</linearGradient>
<linearGradient id="paint19_linear_1920_1109" x1="89.3901" y1="111.262" x2="88.148" y2="111.266" gradientUnits="userSpaceOnUse">
<stop stop-color="#E6E5FB"/>
<stop offset="1" stop-color="#FEFDFF"/>
</linearGradient>
<linearGradient id="paint20_linear_1920_1109" x1="92.0121" y1="111.262" x2="90.7701" y2="111.266" gradientUnits="userSpaceOnUse">
<stop stop-color="#E6E5FB"/>
<stop offset="1" stop-color="#FEFDFF"/>
</linearGradient>
<linearGradient id="paint21_linear_1920_1109" x1="80.0513" y1="104.228" x2="80.1268" y2="123.988" gradientUnits="userSpaceOnUse">
<stop stop-color="#6192DB" stop-opacity="0.38"/>
<stop offset="1" stop-color="#61A0DB" stop-opacity="0.94"/>
</linearGradient>
<linearGradient id="paint22_linear_1920_1109" x1="109.493" y1="148.557" x2="108.251" y2="148.561" gradientUnits="userSpaceOnUse">
<stop stop-color="#E6E5FB"/>
<stop offset="1" stop-color="#FEFDFF"/>
</linearGradient>
<linearGradient id="paint23_linear_1920_1109" x1="112.115" y1="148.557" x2="110.873" y2="148.561" gradientUnits="userSpaceOnUse">
<stop stop-color="#E6E5FB"/>
<stop offset="1" stop-color="#FEFDFF"/>
</linearGradient>
<linearGradient id="paint24_linear_1920_1109" x1="114.737" y1="148.557" x2="113.495" y2="148.561" gradientUnits="userSpaceOnUse">
<stop stop-color="#E6E5FB"/>
<stop offset="1" stop-color="#FEFDFF"/>
</linearGradient>
<linearGradient id="paint25_linear_1920_1109" x1="117.36" y1="148.557" x2="116.118" y2="148.561" gradientUnits="userSpaceOnUse">
<stop stop-color="#E6E5FB"/>
<stop offset="1" stop-color="#FEFDFF"/>
</linearGradient>
<linearGradient id="paint26_linear_1920_1109" x1="119.982" y1="148.557" x2="118.74" y2="148.561" gradientUnits="userSpaceOnUse">
<stop stop-color="#E6E5FB"/>
<stop offset="1" stop-color="#FEFDFF"/>
</linearGradient>
<linearGradient id="paint27_linear_1920_1109" x1="122.604" y1="148.557" x2="121.362" y2="148.561" gradientUnits="userSpaceOnUse">
<stop stop-color="#E6E5FB"/>
<stop offset="1" stop-color="#FEFDFF"/>
</linearGradient>
<linearGradient id="paint28_linear_1920_1109" x1="125.226" y1="148.557" x2="123.984" y2="148.561" gradientUnits="userSpaceOnUse">
<stop stop-color="#E6E5FB"/>
<stop offset="1" stop-color="#FEFDFF"/>
</linearGradient>
<linearGradient id="paint29_linear_1920_1109" x1="127.849" y1="148.557" x2="126.607" y2="148.561" gradientUnits="userSpaceOnUse">
<stop stop-color="#E6E5FB"/>
<stop offset="1" stop-color="#FEFDFF"/>
</linearGradient>
<linearGradient id="paint30_linear_1920_1109" x1="130.471" y1="148.557" x2="129.229" y2="148.561" gradientUnits="userSpaceOnUse">
<stop stop-color="#E6E5FB"/>
<stop offset="1" stop-color="#FEFDFF"/>
</linearGradient>
<linearGradient id="paint31_linear_1920_1109" x1="133.093" y1="148.557" x2="131.851" y2="148.561" gradientUnits="userSpaceOnUse">
<stop stop-color="#E6E5FB"/>
<stop offset="1" stop-color="#FEFDFF"/>
</linearGradient>
<linearGradient id="paint32_linear_1920_1109" x1="121.132" y1="82.3769" x2="121.386" y2="118.602" gradientUnits="userSpaceOnUse">
<stop stop-color="#6192DB" stop-opacity="0.38"/>
<stop offset="1" stop-color="#61A0DB" stop-opacity="0.94"/>
</linearGradient>
<linearGradient id="paint33_linear_1920_1109" x1="150.574" y1="125.98" x2="149.332" y2="125.984" gradientUnits="userSpaceOnUse">
<stop stop-color="#E6E5FB"/>
<stop offset="1" stop-color="#FEFDFF"/>
</linearGradient>
<linearGradient id="paint34_linear_1920_1109" x1="153.196" y1="125.98" x2="151.954" y2="125.984" gradientUnits="userSpaceOnUse">
<stop stop-color="#E6E5FB"/>
<stop offset="1" stop-color="#FEFDFF"/>
</linearGradient>
<linearGradient id="paint35_linear_1920_1109" x1="155.818" y1="125.98" x2="154.576" y2="125.984" gradientUnits="userSpaceOnUse">
<stop stop-color="#E6E5FB"/>
<stop offset="1" stop-color="#FEFDFF"/>
</linearGradient>
<linearGradient id="paint36_linear_1920_1109" x1="158.441" y1="125.98" x2="157.199" y2="125.984" gradientUnits="userSpaceOnUse">
<stop stop-color="#E6E5FB"/>
<stop offset="1" stop-color="#FEFDFF"/>
</linearGradient>
<linearGradient id="paint37_linear_1920_1109" x1="161.063" y1="125.98" x2="159.821" y2="125.984" gradientUnits="userSpaceOnUse">
<stop stop-color="#E6E5FB"/>
<stop offset="1" stop-color="#FEFDFF"/>
</linearGradient>
<linearGradient id="paint38_linear_1920_1109" x1="163.685" y1="125.98" x2="162.443" y2="125.984" gradientUnits="userSpaceOnUse">
<stop stop-color="#E6E5FB"/>
<stop offset="1" stop-color="#FEFDFF"/>
</linearGradient>
<linearGradient id="paint39_linear_1920_1109" x1="166.307" y1="125.98" x2="165.065" y2="125.984" gradientUnits="userSpaceOnUse">
<stop stop-color="#E6E5FB"/>
<stop offset="1" stop-color="#FEFDFF"/>
</linearGradient>
<linearGradient id="paint40_linear_1920_1109" x1="168.93" y1="125.98" x2="167.688" y2="125.984" gradientUnits="userSpaceOnUse">
<stop stop-color="#E6E5FB"/>
<stop offset="1" stop-color="#FEFDFF"/>
</linearGradient>
<linearGradient id="paint41_linear_1920_1109" x1="171.552" y1="125.98" x2="170.31" y2="125.984" gradientUnits="userSpaceOnUse">
<stop stop-color="#E6E5FB"/>
<stop offset="1" stop-color="#FEFDFF"/>
</linearGradient>
<linearGradient id="paint42_linear_1920_1109" x1="174.174" y1="125.98" x2="172.932" y2="125.984" gradientUnits="userSpaceOnUse">
<stop stop-color="#E6E5FB"/>
<stop offset="1" stop-color="#FEFDFF"/>
</linearGradient>
<linearGradient id="paint43_linear_1920_1109" x1="162.213" y1="68.3919" x2="162.636" y2="115.154" gradientUnits="userSpaceOnUse">
<stop stop-color="#6192DB" stop-opacity="0.38"/>
<stop offset="1" stop-color="#61A0DB" stop-opacity="0.94"/>
</linearGradient>
<linearGradient id="paint44_linear_1920_1109" x1="191.655" y1="133.713" x2="190.413" y2="133.717" gradientUnits="userSpaceOnUse">
<stop stop-color="#E6E5FB"/>
<stop offset="1" stop-color="#FEFDFF"/>
</linearGradient>
<linearGradient id="paint45_linear_1920_1109" x1="194.277" y1="133.713" x2="193.035" y2="133.717" gradientUnits="userSpaceOnUse">
<stop stop-color="#E6E5FB"/>
<stop offset="1" stop-color="#FEFDFF"/>
</linearGradient>
<linearGradient id="paint46_linear_1920_1109" x1="196.899" y1="133.713" x2="195.657" y2="133.717" gradientUnits="userSpaceOnUse">
<stop stop-color="#E6E5FB"/>
<stop offset="1" stop-color="#FEFDFF"/>
</linearGradient>
<linearGradient id="paint47_linear_1920_1109" x1="199.521" y1="133.713" x2="198.279" y2="133.717" gradientUnits="userSpaceOnUse">
<stop stop-color="#E6E5FB"/>
<stop offset="1" stop-color="#FEFDFF"/>
</linearGradient>
<linearGradient id="paint48_linear_1920_1109" x1="202.143" y1="133.713" x2="200.901" y2="133.717" gradientUnits="userSpaceOnUse">
<stop stop-color="#E6E5FB"/>
<stop offset="1" stop-color="#FEFDFF"/>
</linearGradient>
<linearGradient id="paint49_linear_1920_1109" x1="204.766" y1="133.713" x2="203.524" y2="133.717" gradientUnits="userSpaceOnUse">
<stop stop-color="#E6E5FB"/>
<stop offset="1" stop-color="#FEFDFF"/>
</linearGradient>
<linearGradient id="paint50_linear_1920_1109" x1="207.388" y1="133.713" x2="206.146" y2="133.717" gradientUnits="userSpaceOnUse">
<stop stop-color="#E6E5FB"/>
<stop offset="1" stop-color="#FEFDFF"/>
</linearGradient>
<linearGradient id="paint51_linear_1920_1109" x1="210.01" y1="133.713" x2="208.768" y2="133.717" gradientUnits="userSpaceOnUse">
<stop stop-color="#E6E5FB"/>
<stop offset="1" stop-color="#FEFDFF"/>
</linearGradient>
<linearGradient id="paint52_linear_1920_1109" x1="212.632" y1="133.713" x2="211.39" y2="133.717" gradientUnits="userSpaceOnUse">
<stop stop-color="#E6E5FB"/>
<stop offset="1" stop-color="#FEFDFF"/>
</linearGradient>
<linearGradient id="paint53_linear_1920_1109" x1="215.254" y1="133.713" x2="214.012" y2="133.717" gradientUnits="userSpaceOnUse">
<stop stop-color="#E6E5FB"/>
<stop offset="1" stop-color="#FEFDFF"/>
</linearGradient>
<linearGradient id="paint54_linear_1920_1109" x1="203.293" y1="102.48" x2="203.379" y2="123.558" gradientUnits="userSpaceOnUse">
<stop stop-color="#6192DB" stop-opacity="0.38"/>
<stop offset="1" stop-color="#61A0DB" stop-opacity="0.94"/>
</linearGradient>
<linearGradient id="paint55_linear_1920_1109" x1="232.736" y1="111.388" x2="231.494" y2="111.392" gradientUnits="userSpaceOnUse">
<stop stop-color="#E6E5FB"/>
<stop offset="1" stop-color="#FEFDFF"/>
</linearGradient>
<linearGradient id="paint56_linear_1920_1109" x1="235.358" y1="111.388" x2="234.116" y2="111.392" gradientUnits="userSpaceOnUse">
<stop stop-color="#E6E5FB"/>
<stop offset="1" stop-color="#FEFDFF"/>
</linearGradient>
<linearGradient id="paint57_linear_1920_1109" x1="237.98" y1="111.388" x2="236.738" y2="111.392" gradientUnits="userSpaceOnUse">
<stop stop-color="#E6E5FB"/>
<stop offset="1" stop-color="#FEFDFF"/>
</linearGradient>
<linearGradient id="paint58_linear_1920_1109" x1="240.602" y1="111.388" x2="239.36" y2="111.392" gradientUnits="userSpaceOnUse">
<stop stop-color="#E6E5FB"/>
<stop offset="1" stop-color="#FEFDFF"/>
</linearGradient>
<linearGradient id="paint59_linear_1920_1109" x1="243.225" y1="111.388" x2="241.983" y2="111.392" gradientUnits="userSpaceOnUse">
<stop stop-color="#E6E5FB"/>
<stop offset="1" stop-color="#FEFDFF"/>
</linearGradient>
<linearGradient id="paint60_linear_1920_1109" x1="245.847" y1="111.388" x2="244.605" y2="111.392" gradientUnits="userSpaceOnUse">
<stop stop-color="#E6E5FB"/>
<stop offset="1" stop-color="#FEFDFF"/>
</linearGradient>
<linearGradient id="paint61_linear_1920_1109" x1="248.469" y1="111.388" x2="247.227" y2="111.392" gradientUnits="userSpaceOnUse">
<stop stop-color="#E6E5FB"/>
<stop offset="1" stop-color="#FEFDFF"/>
</linearGradient>
<linearGradient id="paint62_linear_1920_1109" x1="251.091" y1="111.388" x2="249.849" y2="111.392" gradientUnits="userSpaceOnUse">
<stop stop-color="#E6E5FB"/>
<stop offset="1" stop-color="#FEFDFF"/>
</linearGradient>
<linearGradient id="paint63_linear_1920_1109" x1="253.713" y1="111.388" x2="252.471" y2="111.392" gradientUnits="userSpaceOnUse">
<stop stop-color="#E6E5FB"/>
<stop offset="1" stop-color="#FEFDFF"/>
</linearGradient>
<linearGradient id="paint64_linear_1920_1109" x1="256.335" y1="111.388" x2="255.093" y2="111.392" gradientUnits="userSpaceOnUse">
<stop stop-color="#E6E5FB"/>
<stop offset="1" stop-color="#FEFDFF"/>
</linearGradient>
<linearGradient id="paint65_linear_1920_1109" x1="244.375" y1="102.48" x2="244.46" y2="123.558" gradientUnits="userSpaceOnUse">
<stop stop-color="#6192DB" stop-opacity="0.38"/>
<stop offset="1" stop-color="#61A0DB" stop-opacity="0.94"/>
</linearGradient>
<linearGradient id="paint66_linear_1920_1109" x1="273.816" y1="122.113" x2="272.574" y2="122.117" gradientUnits="userSpaceOnUse">
<stop stop-color="#E6E5FB"/>
<stop offset="1" stop-color="#FEFDFF"/>
</linearGradient>
<linearGradient id="paint67_linear_1920_1109" x1="276.438" y1="122.113" x2="275.196" y2="122.117" gradientUnits="userSpaceOnUse">
<stop stop-color="#E6E5FB"/>
<stop offset="1" stop-color="#FEFDFF"/>
</linearGradient>
<linearGradient id="paint68_linear_1920_1109" x1="279.06" y1="122.113" x2="277.818" y2="122.117" gradientUnits="userSpaceOnUse">
<stop stop-color="#E6E5FB"/>
<stop offset="1" stop-color="#FEFDFF"/>
</linearGradient>
<linearGradient id="paint69_linear_1920_1109" x1="281.683" y1="122.113" x2="280.441" y2="122.117" gradientUnits="userSpaceOnUse">
<stop stop-color="#E6E5FB"/>
<stop offset="1" stop-color="#FEFDFF"/>
</linearGradient>
<linearGradient id="paint70_linear_1920_1109" x1="284.305" y1="122.113" x2="283.063" y2="122.117" gradientUnits="userSpaceOnUse">
<stop stop-color="#E6E5FB"/>
<stop offset="1" stop-color="#FEFDFF"/>
</linearGradient>
<linearGradient id="paint71_linear_1920_1109" x1="286.927" y1="122.113" x2="285.685" y2="122.117" gradientUnits="userSpaceOnUse">
<stop stop-color="#E6E5FB"/>
<stop offset="1" stop-color="#FEFDFF"/>
</linearGradient>
<linearGradient id="paint72_linear_1920_1109" x1="289.549" y1="122.113" x2="288.307" y2="122.117" gradientUnits="userSpaceOnUse">
<stop stop-color="#E6E5FB"/>
<stop offset="1" stop-color="#FEFDFF"/>
</linearGradient>
<linearGradient id="paint73_linear_1920_1109" x1="292.172" y1="122.113" x2="290.93" y2="122.117" gradientUnits="userSpaceOnUse">
<stop stop-color="#E6E5FB"/>
<stop offset="1" stop-color="#FEFDFF"/>
</linearGradient>
<linearGradient id="paint74_linear_1920_1109" x1="294.794" y1="122.113" x2="293.552" y2="122.117" gradientUnits="userSpaceOnUse">
<stop stop-color="#E6E5FB"/>
<stop offset="1" stop-color="#FEFDFF"/>
</linearGradient>
<linearGradient id="paint75_linear_1920_1109" x1="297.416" y1="122.113" x2="296.174" y2="122.117" gradientUnits="userSpaceOnUse">
<stop stop-color="#E6E5FB"/>
<stop offset="1" stop-color="#FEFDFF"/>
</linearGradient>
<linearGradient id="paint76_linear_1920_1109" x1="285.455" y1="29.9333" x2="286.565" y2="105.665" gradientUnits="userSpaceOnUse">
<stop stop-color="#6192DB" stop-opacity="0.38"/>
<stop offset="1" stop-color="#61A0DB" stop-opacity="0.94"/>
</linearGradient>
<linearGradient id="paint77_linear_1920_1109" x1="314.897" y1="135.335" x2="313.655" y2="135.339" gradientUnits="userSpaceOnUse">
<stop stop-color="#E6E5FB"/>
<stop offset="1" stop-color="#FEFDFF"/>
</linearGradient>
<linearGradient id="paint78_linear_1920_1109" x1="317.519" y1="135.335" x2="316.277" y2="135.339" gradientUnits="userSpaceOnUse">
<stop stop-color="#E6E5FB"/>
<stop offset="1" stop-color="#FEFDFF"/>
</linearGradient>
<linearGradient id="paint79_linear_1920_1109" x1="320.142" y1="135.335" x2="318.899" y2="135.339" gradientUnits="userSpaceOnUse">
<stop stop-color="#E6E5FB"/>
<stop offset="1" stop-color="#FEFDFF"/>
</linearGradient>
<linearGradient id="paint80_linear_1920_1109" x1="322.764" y1="135.335" x2="321.522" y2="135.339" gradientUnits="userSpaceOnUse">
<stop stop-color="#E6E5FB"/>
<stop offset="1" stop-color="#FEFDFF"/>
</linearGradient>
<linearGradient id="paint81_linear_1920_1109" x1="325.386" y1="135.335" x2="324.144" y2="135.339" gradientUnits="userSpaceOnUse">
<stop stop-color="#E6E5FB"/>
<stop offset="1" stop-color="#FEFDFF"/>
</linearGradient>
<linearGradient id="paint82_linear_1920_1109" x1="328.008" y1="135.335" x2="326.766" y2="135.339" gradientUnits="userSpaceOnUse">
<stop stop-color="#E6E5FB"/>
<stop offset="1" stop-color="#FEFDFF"/>
</linearGradient>
<linearGradient id="paint83_linear_1920_1109" x1="330.63" y1="135.335" x2="329.388" y2="135.339" gradientUnits="userSpaceOnUse">
<stop stop-color="#E6E5FB"/>
<stop offset="1" stop-color="#FEFDFF"/>
</linearGradient>
<linearGradient id="paint84_linear_1920_1109" x1="333.253" y1="135.335" x2="332.011" y2="135.339" gradientUnits="userSpaceOnUse">
<stop stop-color="#E6E5FB"/>
<stop offset="1" stop-color="#FEFDFF"/>
</linearGradient>
<linearGradient id="paint85_linear_1920_1109" x1="335.875" y1="135.335" x2="334.633" y2="135.339" gradientUnits="userSpaceOnUse">
<stop stop-color="#E6E5FB"/>
<stop offset="1" stop-color="#FEFDFF"/>
</linearGradient>
<linearGradient id="paint86_linear_1920_1109" x1="338.497" y1="135.335" x2="337.255" y2="135.339" gradientUnits="userSpaceOnUse">
<stop stop-color="#E6E5FB"/>
<stop offset="1" stop-color="#FEFDFF"/>
</linearGradient>
<linearGradient id="paint87_linear_1920_1109" x1="326.536" y1="68.3919" x2="326.959" y2="115.154" gradientUnits="userSpaceOnUse">
<stop stop-color="#6192DB" stop-opacity="0.38"/>
<stop offset="1" stop-color="#61A0DB" stop-opacity="0.94"/>
</linearGradient>
<linearGradient id="paint88_linear_1920_1109" x1="355.978" y1="122.113" x2="354.736" y2="122.117" gradientUnits="userSpaceOnUse">
<stop stop-color="#E6E5FB"/>
<stop offset="1" stop-color="#FEFDFF"/>
</linearGradient>
<linearGradient id="paint89_linear_1920_1109" x1="358.6" y1="122.113" x2="357.358" y2="122.117" gradientUnits="userSpaceOnUse">
<stop stop-color="#E6E5FB"/>
<stop offset="1" stop-color="#FEFDFF"/>
</linearGradient>
<linearGradient id="paint90_linear_1920_1109" x1="361.222" y1="122.113" x2="359.98" y2="122.117" gradientUnits="userSpaceOnUse">
<stop stop-color="#E6E5FB"/>
<stop offset="1" stop-color="#FEFDFF"/>
</linearGradient>
<linearGradient id="paint91_linear_1920_1109" x1="363.845" y1="122.113" x2="362.603" y2="122.117" gradientUnits="userSpaceOnUse">
<stop stop-color="#E6E5FB"/>
<stop offset="1" stop-color="#FEFDFF"/>
</linearGradient>
<linearGradient id="paint92_linear_1920_1109" x1="366.467" y1="122.113" x2="365.225" y2="122.117" gradientUnits="userSpaceOnUse">
<stop stop-color="#E6E5FB"/>
<stop offset="1" stop-color="#FEFDFF"/>
</linearGradient>
<linearGradient id="paint93_linear_1920_1109" x1="369.089" y1="122.113" x2="367.847" y2="122.117" gradientUnits="userSpaceOnUse">
<stop stop-color="#E6E5FB"/>
<stop offset="1" stop-color="#FEFDFF"/>
</linearGradient>
<linearGradient id="paint94_linear_1920_1109" x1="371.711" y1="122.113" x2="370.469" y2="122.117" gradientUnits="userSpaceOnUse">
<stop stop-color="#E6E5FB"/>
<stop offset="1" stop-color="#FEFDFF"/>
</linearGradient>
<linearGradient id="paint95_linear_1920_1109" x1="374.333" y1="122.113" x2="373.091" y2="122.117" gradientUnits="userSpaceOnUse">
<stop stop-color="#E6E5FB"/>
<stop offset="1" stop-color="#FEFDFF"/>
</linearGradient>
<linearGradient id="paint96_linear_1920_1109" x1="376.956" y1="122.113" x2="375.713" y2="122.117" gradientUnits="userSpaceOnUse">
<stop stop-color="#E6E5FB"/>
<stop offset="1" stop-color="#FEFDFF"/>
</linearGradient>
<linearGradient id="paint97_linear_1920_1109" x1="379.578" y1="122.113" x2="378.336" y2="122.117" gradientUnits="userSpaceOnUse">
<stop stop-color="#E6E5FB"/>
<stop offset="1" stop-color="#FEFDFF"/>
</linearGradient>
<linearGradient id="paint98_linear_1920_1109" x1="367.617" y1="56.1551" x2="368.223" y2="112.136" gradientUnits="userSpaceOnUse">
<stop stop-color="#6192DB" stop-opacity="0.38"/>
<stop offset="1" stop-color="#61A0DB" stop-opacity="0.94"/>
</linearGradient>
</defs>
</svg>
