<svg width="34" height="40" viewBox="0 0 34 40" fill="none" xmlns="http://www.w3.org/2000/svg">
<path fill-rule="evenodd" clip-rule="evenodd" d="M31.1486 39.2748H2.38536C2.33197 39.2206 2.28782 39.1399 2.22432 39.1163C0.542113 38.481 0.208984 37.9905 0.208984 36.1262C0.208984 26.9107 0.208984 17.6948 0.208984 8.4786C0.208984 5.95835 1.37493 4.72627 3.76112 4.72236C5.31173 4.72236 6.86509 4.67505 8.41388 4.74105C9.12799 4.77159 9.36726 4.56283 9.27616 3.80453C9.11603 2.46906 9.30377 1.26559 10.5801 0.582077H11.7047C12.7154 1.04018 13.2996 2.18143 13.1163 3.33964C13.0979 3.5671 13.1356 3.80057 13.1062 4.02905C13.0326 4.58453 13.2249 4.74899 13.755 4.74105C15.785 4.70763 17.8169 4.68203 19.8452 4.74995C20.6734 4.77754 20.9835 4.55297 20.8666 3.64987C20.5464 2.38256 21.1685 1.06037 22.3105 0.581055H23.2749C24.0425 0.876557 24.5945 1.60185 24.7096 2.46612C24.7505 2.95121 24.7505 3.43942 24.7096 3.92463C24.6507 4.54413 24.8127 4.76077 25.4393 4.74009C27.0442 4.68593 28.651 4.70066 30.2568 4.72627C32.5749 4.76372 33.7363 6.0273 33.7363 8.47559C33.7363 17.728 33.7363 26.9806 33.7363 36.2336C33.8344 37.6982 32.8147 38.9755 31.4476 39.1005C31.328 39.1241 31.1688 39.065 31.1486 39.2748ZM16.9235 15.795C21.4475 15.795 25.9723 15.7891 30.4962 15.8039C30.9757 15.8039 31.2039 15.7428 31.1938 15.1224C31.1561 12.7735 31.1671 10.4237 31.1938 8.07478C31.1984 7.58235 31.0594 7.45239 30.6094 7.46129C29.137 7.49081 27.6646 7.47307 26.1922 7.47115C24.8119 7.47115 24.8119 7.47115 24.7281 8.93063C24.6913 10.0432 23.8348 10.9227 22.7947 10.9161C22.2824 10.9243 21.7884 10.7122 21.4234 10.3273C21.0584 9.94241 20.853 9.41692 20.853 8.8686C20.8385 8.69716 20.8403 8.52452 20.8585 8.35345C20.9662 7.6641 20.7665 7.42775 20.0634 7.45035C18.1917 7.51046 16.3162 7.47205 14.4426 7.47103C13.1956 7.47103 13.1984 7.47103 13.1082 8.81438C13.0916 9.01412 13.0583 9.21189 13.0088 9.40526C12.7684 10.4175 11.8483 11.0683 10.884 10.9082C9.97306 10.788 9.28411 9.96789 9.26897 8.98581C9.24884 8.67131 9.24884 8.35579 9.26892 8.04136C9.31219 7.58921 9.15299 7.45732 8.73336 7.46321C6.9398 7.48582 5.14441 7.49471 3.35267 7.46321C2.84377 7.45336 2.72599 7.62275 2.73242 8.14372C2.76002 10.2916 2.74713 12.4406 2.74713 14.5886C2.74713 15.797 2.74713 15.797 3.90848 15.797L16.9235 15.795ZM13.9289 26.6284C13.9409 26.6028 13.9464 26.5654 13.9648 26.5546C14.0835 26.4896 14.2031 26.4255 14.3255 26.3704C15.6358 25.8882 16.4959 24.544 16.4421 23.0623C16.4751 21.5806 15.6156 20.2437 14.3108 19.7473C12.6255 19.0666 10.772 19.0319 9.0654 19.6488C7.3022 20.1678 7.30588 20.1786 7.80189 21.9888C7.83191 22.0981 7.85559 22.2092 7.87275 22.3217C7.95742 22.8752 8.15709 22.9185 8.64575 22.6851C9.71077 22.0609 10.9622 21.9091 12.1307 22.2626C12.6951 22.4203 13.098 22.9528 13.1246 23.5764C13.1615 24.1957 12.8328 24.7736 12.3018 25.0231C11.8903 25.2223 11.4527 25.3528 11.0043 25.4102C10.4135 25.5254 9.58068 25.1147 9.28344 25.6534C9 26.1646 9.22455 26.9869 9.19141 27.6704C9.16841 28.1215 9.31473 28.2614 9.73896 28.2614C10.5116 28.1884 11.2901 28.2459 12.046 28.4317C12.9272 28.592 13.5536 29.4377 13.4982 30.3925C13.4659 31.2661 12.946 31.8255 11.9613 32.0737C10.6668 32.3168 9.33366 32.1273 8.14325 31.5311C7.95919 31.4582 7.68313 31.1716 7.59663 31.4237C7.34472 32.2279 7.1376 33.0475 6.97637 33.878C6.93866 34.0542 7.17883 34.1301 7.31871 34.1901C9.67532 35.3563 12.3944 35.3412 14.7395 34.1488C16.2173 33.4122 17.088 31.7454 16.9003 30.0124C16.6823 28.1658 15.8007 27.1622 13.9289 26.6305V26.6284ZM22.7926 22.689V23.6217C22.7926 26.3143 22.7797 29.0069 22.8 31.6975C22.8073 32.6016 22.4273 33.8454 22.9583 34.3172C23.4699 34.7712 24.5899 34.4157 25.4429 34.4639C25.8902 34.4885 26.0273 34.3507 26.0254 33.8543C26.0077 29.1855 26.0077 24.5166 26.0254 19.8477C26.0254 19.2923 25.846 19.2263 25.3813 19.1869C23.9934 19.0423 22.6002 19.3994 21.4242 20.2013C20.8196 20.6091 19.8405 20.6937 19.604 21.3152C19.3767 21.9111 19.7981 22.7787 19.8966 23.5331C19.9555 23.9851 20.1046 24.0492 20.4745 23.8503C21.2061 23.4592 21.9543 23.1067 22.7945 22.6881L22.7926 22.689Z" fill="#003849"/>
</svg>
